<svg xmlns="http://www.w3.org/2000/svg" xmlns:xlink="http://www.w3.org/1999/xlink" width="100.0" height="100.0" viewBox="-3.5195416907999832 4.480095624200074 4.964542447600025 6.939874065599953" preserveAspectRatio="xMinYMin meet"><g transform="matrix(1,0,0,-1,0,15.900065314000102)"><path fill-rule="evenodd" fill="#66cc99" stroke="#555555" stroke-width="0.13879748131199907" opacity="0.6" d="M -0.1661091709999596,11.134980367000125 L -0.15866776499993307,11.118443908000131 L -0.14207963099994458,11.103328552000036 L -0.12174495499991167,11.092192282000013 L -0.10334814499992717,11.087541403000046 L -0.08502884999992943,11.08940175400005 L -0.05107743299990375,11.098264262000058 L -0.03226721199990834,11.09857432000004 L 0.001115763000058223,11.085991110000109 L 0.01620528200007243,11.062581686000058 L 0.019409221000046273,11.031627502000049 L 0.016567017000056694,10.99620330800012 L 0.014189901000122518,10.983671774000115 L 0.007187744000106022,10.976798808000055 L -0.001571410999872569,10.971295268000063 L -0.009581257999855097,10.963001201000097 L -0.014438842999965118,10.953596090000048 L -0.036091267999950105,10.853137105000144 L -0.035316120999937084,10.843447774000111 L -0.030200154999931783,10.823784892000077 L -0.032060505999936595,10.81316538500009 L -0.040690470999891204,10.80502634700008 L -0.061102660999949876,10.791357931000064 L -0.07521032699986563,10.773658753000063 L -0.08280676299992251,10.756217957000018 L -0.08812943499989956,10.714411723000055 L -0.09156447999987449,10.700253768000039 L -0.09768957599987971,10.675008443000053 L -0.09833553099986148,10.65415700300008 L -0.08812943499989956,10.633486430000076 L -0.07934444199989343,10.626251730000106 L -0.06836319999990792,10.621058248000097 L -0.05645178199998213,10.618009338000064 L -0.033352416999889556,10.615063782000064 L -0.0262210699998775,10.61036122600008 L -0.019968220999970754,10.604340922000048 L -0.01092484499991997,10.5982689410001 L 0.020339396000082388,10.588037008000114 L 0.029434448000074553,10.582533468000122 L 0.03734094200009963,10.573180034000089 L 0.04901981600008298,10.550959168000048 L 0.057262207000121634,10.541114808000074 L 0.1101788740000984,10.508248596000044 L 0.12601770000009083,10.491608786000114 L 0.17697066300013375,10.397686869000012 L 0.17986454200013213,10.394172872000055 L 0.18751265400010197,10.394948019000054 L 0.19175012200014407,10.400839132000058 L 0.1944372960001033,10.407376201000133 L 0.19707279500011055,10.410270081000121 L 0.2236086420000163,10.399960632000031 L 0.23322045900002308,10.398617045000051 L 0.24456343600010655,10.401536763000053 L 0.2539427080000678,10.40608429000008 L 0.2630119220001177,10.408926493000052 L 0.27324385600010714,10.40660105400012 L 0.2831140540000945,10.396808370000059 L 0.28355330400009393,10.385775452000061 L 0.2802201740001067,10.375181784000091 L 0.27882491100012885,10.366629333000063 L 0.2900386960000674,10.348490906000038 L 0.3070660810001016,10.333272196000095 L 0.3175822350001454,10.317330017000074 L 0.3087972410001498,10.29709869400007 L 0.3227498780001383,10.297253723000026 L 0.36659733000007577,10.304488424000084 L 0.3761833080000656,10.299940898000045 L 0.39659550000001786,10.283223572000097 L 0.37204919400005565,10.265136821000084 L 0.3672949620000736,10.249814759000031 L 0.3644269200000849,10.233407491000065 L 0.3571922200001154,10.219997457000119 L 0.35884586600005264,10.18633026100008 L 0.3536007080000445,10.11550771100012 L 0.36339339200009135,10.08966949500011 L 0.37607995600004074,10.081582133000026 L 0.38708703600013905,10.078946635000094 L 0.39514856000002396,10.072357890000106 L 0.3981457920001219,10.052126566000112 L 0.39457026000013684,10.035557027000038 L 0.39390832500009765,10.032489522000077 L 0.38274621500005424,10.029595643000093 L 0.3672949620000736,10.032127787000078 L 0.349776652000088,10.02882049600008 L 0.35571944100010455,10.018976136000106 L 0.35512516300013885,10.012619934000071 L 0.3517403570000397,10.006418763000084 L 0.349776652000088,9.997168681000076 L 0.3514302970001495,9.990450745000146 L 0.36339339200009135,9.966782938000023 L 0.3701888420000614,9.947016703000145 L 0.3695687260000682,9.938825989000122 L 0.3625924070000792,9.93267649300006 L 0.349776652000088,9.918956400000127 L 0.34171512800011783,9.903789368000105 L 0.3396739090000551,9.889836731000116 L 0.3441955970000947,9.84976165800012 L 0.3438855380001087,9.838392843000037 L 0.322439819000067,9.760671489000117 L 0.3238867590000609,9.742067973000061 L 0.3291319180000869,9.731293437000133 L 0.3362891030001265,9.723490296000108 L 0.34295536300004414,9.71354258300002 L 0.34760624200009715,9.69884063800012 L 0.34988000500004546,9.68065053400008 L 0.34708947800007195,9.663158061000033 L 0.3366508380001392,9.650833231000078 L 0.31871911600006797,9.648611145000075 L 0.3019242750000899,9.65783538800008 L 0.27528507500005617,9.685585633000116 L 0.2609707030000834,9.657163594000096 L 0.26169417300008035,9.627940572000057 L 0.27763635200008707,9.60698577900007 L 0.3087972410001498,9.603678488000071 L 0.3493632410000771,9.613910421000043 L 0.36915531400006785,9.610138041000113 L 0.37773360200009165,9.589415792000082 L 0.37080896000011876,9.575644023000052 L 0.35460839800001054,9.571096497000013 L 0.33615991200008466,9.574197082000055 L 0.322439819000067,9.583137105000077 L 0.3045597740000119,9.57156158500004 L 0.2805302330000927,9.570166321000059 L 0.23019738800010714,9.57574737600008 L 0.2277427570000441,9.569339498000133 L 0.22306604000007724,9.541175842000087 L 0.2234019370000624,9.534793803000056 L 0.2259082440000384,9.531925761000068 L 0.23322045900002308,9.52559539800005 L 0.24311649600011265,9.518696594000076 L 0.2535034590000578,9.51425242200007 L 0.27900577800008364,9.519006653000062 L 0.2931392820001122,9.518283183000065 L 0.3019242750000899,9.50745697100011 L 0.29810021900004813,9.497095845000104 L 0.28531030200008445,9.488362529000128 L 0.269729858000062,9.482342224000092 L 0.2280528160001154,9.473970642000026 L 0.2279494630001011,9.459733785000054 L 0.2349774580001167,9.443765767000116 L 0.2268125810000754,9.432345276000106 L 0.23136010800001827,9.418961080000074 L 0.24988610900007302,9.416945699000038 L 0.2684896240000114,9.420640564000038 L 0.3142232670000453,9.436479391000134 L 0.3218197020001128,9.442835591000062 L 0.3257471110000836,9.451336365000074 L 0.32879602100010175,9.471567688000064 L 0.3337827960001505,9.479474182000018 L 0.34894982900007676,9.486037089000092 L 0.371429077000073,9.490016175000079 L 0.4116591800001004,9.492238261000082 L 0.43044356200010725,9.489189351000064 L 0.4835152590000291,9.470017395000056 L 0.48992313600007265,9.461129049000121 L 0.49168013500013785,9.451284689000062 L 0.4894063720001327,9.44102691600007 L 0.48279178800004274,9.42983896900003 L 0.48258508300008884,9.428857117000064 L 0.48279178800004274,9.427875265000097 L 0.4835152590000291,9.426841736000114 L 0.5132808840000394,9.416790670000083 L 0.5313676350000378,9.401106873000032 L 0.5375688070001274,9.37764577200005 L 0.5282670490001067,9.32695119300007 L 0.5266134030000558,9.297650656000116 L 0.5224792880001132,9.285067444000092 L 0.5123507080000707,9.274706320000078 L 0.5010852450000982,9.268195089000102 L 0.4929203700000926,9.258609111000098 L 0.4919901940000386,9.238894551000058 L 0.5043925370001148,9.20310862200003 L 0.504702595000083,9.187166443000095 L 0.4926103100001171,9.16675425300005 L 0.4699760340000694,9.146729635000014 L 0.4636456710000516,9.137091980000093 L 0.4637490230000765,9.12145985900014 L 0.4584780270001261,9.089239604000085 L 0.44155399600003875,9.05818206800005 L 0.4312703860000511,9.027589620000043 L 0.44468041900009325,8.996557922000108 L 0.4448871260001397,8.996557922000108 L 0.4448871260001397,8.996454570000083 L 0.49312707500013175,8.915219218000104 L 0.5056327710001369,8.866333313000027 L 0.4836292700000513,8.834973182000098 L 0.4835152590000291,8.834810689000065 L 0.47845096900005046,8.822330832000063 L 0.47700402900005656,8.806750386000132 L 0.4734900310000114,8.793547058000044 L 0.46248295100011205,8.78830190100011 L 0.4495121660000905,8.790368957000084 L 0.439409424000047,8.793443705000115 L 0.43013350400013906,8.794735617000072 L 0.4195915120000677,8.791247457000026 L 0.4249658610001177,8.787320048000055 L 0.41829960100011476,8.770602722000106 L 0.4078092860000595,8.75905303900008 L 0.3971122640000715,8.781532287000076 L 0.38527836100013246,8.786079814000118 L 0.3726693110000383,8.783754375000086 L 0.36587386100006825,8.774271749000107 L 0.3680835320001279,8.761481025000066 L 0.3744263100001035,8.724765727000062 L 0.4037268470001436,8.662082214000122 L 0.44351770000005786,8.606865947000117 L 0.4835152590000291,8.579787496000066 L 0.500568481000073,8.560176290000044 L 0.524753052000051,8.538032939000118 L 0.550797974000119,8.519326070000133 L 0.6163236900001152,8.48875946000004 L 0.6337903240000742,8.452017517000058 L 0.6467094320000797,8.414164530000065 L 0.6850533450000853,8.382564392000077 L 0.6872237550000762,8.37220326700006 L 0.686913697000108,8.360731100000052 L 0.689394165000067,8.346054993000067 L 0.6885673420000558,8.336029765000134 L 0.6891874590000384,8.331301371000052 L 0.6931148680000945,8.32789072600012 L 0.7051038010000354,8.325978699000103 L 0.7088245040000629,8.322568055000076 L 0.7127519120000159,8.297970072000098 L 0.7052071530000603,8.28275136300006 L 0.6891874590000384,8.27285532600007 L 0.645055786000114,8.253424988000091 L 0.6283126220000668,8.24246958400002 L 0.5950329990001251,8.212729797000037 L 0.586661417000073,8.208750712000054 L 0.5790133050000748,8.207820537000103 L 0.5738456620000818,8.203944804000045 L 0.5727087810000739,8.190999857000037 L 0.5768428950000839,8.180483703000078 L 0.5845943600000965,8.173068136000055 L 0.5915190020000693,8.164489848000116 L 0.5932760010000493,8.15066640200007 L 0.5877982990000703,8.137721456000051 L 0.5799434810000434,8.131701152000119 L 0.5749825440000791,8.12462148100009 L 0.5802535400001148,8.100075175000114 L 0.5839742430000285,8.053049622000046 L 0.5931726480001203,8.015739238000023 L 0.5936894120000602,7.996567281000097 L 0.5928625900000384,7.959308574000076 L 0.6026879120001354,7.893132132000062 L 0.6034045810001203,7.888305155000083 L 0.6025777590000985,7.82841217100011 L 0.6116728110000622,7.771258037000081 L 0.6095024000000819,7.7189614870000725 L 0.6122929280000449,7.699427796000066 L 0.5833541260000743,7.704285380000087 L 0.5705383710000831,7.683924866000055 L 0.5674377850000383,7.652919006000033 L 0.5677478430001202,7.625737203000142 L 0.5620634360000736,7.612301331000097 L 0.5485242110000854,7.60537668900011 L 0.5325045170000635,7.601035868000039 L 0.5193787030000863,7.595196432000051 L 0.5092501220001111,7.585377910000076 L 0.5030489500000499,7.574680888000074 L 0.4994316000001504,7.562381897000122 L 0.49560754400010865,7.504297587000053 L 0.500568481000073,7.455049947000063 L 0.5166915280001376,7.411021627000096 L 0.5482141520000994,7.383271383000064 L 0.5664042560000553,7.380790914000087 L 0.5862480060000621,7.38435658800006 L 0.6230416260001448,7.397895813000048 L 0.6296562090001316,7.389162496000068 L 0.6456759030000967,7.3235851040000455 L 0.644435668000142,7.301932678000071 L 0.6311031490001255,7.265242412000092 L 0.6218013920000942,7.218836975000087 L 0.5977201740000737,7.158892314000099 L 0.594309530000146,7.119721578000053 L 0.5987537020000389,7.074711405000116 L 0.598030233000145,7.031199849000103 L 0.5789099530000499,6.996783346000058 L 0.565990844000055,6.989651998000113 L 0.5238228760000823,6.97869659500013 L 0.5091467690000968,6.977611389000046 L 0.49457401500012566,6.973115540000023 L 0.506046183000052,6.957819316000069 L 0.5344682210000826,6.935908508000111 L 0.5462504480000803,6.914772847000066 L 0.5438733320001177,6.8979263300000895 L 0.5227893470000993,6.86283803300006 L 0.5160714110000697,6.8418057250001425 L 0.5192753500000435,6.832245585000052 L 0.5288871670000788,6.826535340000092 L 0.5410828050000873,6.817181906000059 L 0.5700216070000579,6.763515930000068 L 0.5766361900000447,6.75473093700009 L 0.5937927650001029,6.7511135870001056 L 0.6112593990000619,6.7415276090001015 L 0.6258321530000899,6.727755839000054 L 0.6343070880000994,6.711606954000075 L 0.6353406170000824,6.695380554000067 L 0.6266589760000443,6.644892680000041 L 0.6322400310000376,6.623989563000066 L 0.6453658440001107,6.612026469000114 L 0.6594218340000282,6.601717021000113 L 0.668206828000109,6.58582651800009 L 0.6776119380000694,6.584896342000135 L 0.7055172120000464,6.5857748420000775 L 0.7146122640000385,6.583914490000069 L 0.727428019000115,6.571434632000077 L 0.7268079020001323,6.562107035000054 L 0.7197799070001167,6.552727763000092 L 0.7134753830001159,6.539989523000131 L 0.7130757100000835,6.533935652000082 L 0.7117183830000329,6.5133761600001066 L 0.7179195550001225,6.488829854000045 L 0.7299084880000919,6.465084534000084 L 0.7457214760000852,6.440899963000021 L 0.7668054610001036,6.4193508910000645 L 0.8162081300001205,6.395062968000062 L 0.8413228760000493,6.379224142000055 L 0.8738790280000899,6.340130921000124 L 0.8867981360000101,6.33038991300009 L 0.9072620030000849,6.324912211000097 L 0.9835364180000852,6.324602153000114 L 1.0096846920000928,6.244452006000046 L 1.025187622000118,6.222334493000034 L 1.0331457930000738,6.216546733000058 L 1.0405871990001003,6.213471985000112 L 1.0481319580000559,6.209389547000114 L 1.055780070000111,6.200630392000036 L 1.0689058830000988,6.18034739200003 L 1.0796545810001135,6.167919210000136 L 1.0934005130000628,6.160917053000048 L 1.1761861570001315,6.151511942000084 L 1.187968384000044,6.135647278000079 L 1.185394727000073,6.100490627000056 L 1.1848250660000872,6.1003278670000896 L 1.1783960300000444,6.09796784100007 L 1.133067254000082,6.073635158000059 L 1.098806186000047,6.047023830000057 L 1.048024936000047,5.9926618510000935 L 1.0363875660000872,5.975165106000077 L 1.0117293630000859,5.9262556010000935 L 1.0070906910000872,5.906683661000045 L 1.0056258470000898,5.8860537780000755 L 0.9952905610000471,5.839341539000088 L 0.9865828790000819,5.820746161000045 L 0.9548445970000898,5.791083075000074 L 0.9143986340000652,5.777085679000038 L 0.7234806650000678,5.7554385440000715 L 0.36491946700004974,5.781480210000041 L 0.32195071700004974,5.779201565000051 L 0.2981063160000872,5.773667710000041 L 0.2859806650000678,5.7688662780000755 L 0.28093509200004974,5.7630069030000755 L 0.2758895190000885,5.760158596000053 L 0.25171959700008983,5.7591006530000755 L 0.2433374360000471,5.75617096600007 L 0.22437584700008983,5.742621161000045 L 0.1573999360000471,5.724554755000042 L 0.14210045700008322,5.714260158000059 L 0.11459394600007045,5.688666083000044 L 0.07569420700008322,5.677557684000078 L 0.06169681100004709,5.6628278670000896 L 0.05062910200007309,5.644761460000041 L 0.034515821000070446,5.62836334800005 L -0.04503333199994586,5.601629950000074 L -0.049672003999944536,5.598863023000092 L -0.06273352799991017,5.585842190000051 L -0.06859290299991017,5.581203518000052 L -0.07738196499991545,5.578070380000042 L -0.09325110599991149,5.5766462260000935 L -0.30785071499991545,5.5073916690000715 L -0.3530981109999516,5.501695054000038 L -0.3592830069999309,5.49868398600006 L -0.3715714179999168,5.492743231000077 L -0.4450577459999181,5.431382554000038 L -0.4528702459999181,5.420111395000049 L -0.45811926999994057,5.404730536000045 L -0.47158769399993616,5.390814520000049 L -0.5074356759999432,5.368841864000046 L -0.5773819649999155,5.351629950000074 L -0.5893448559999115,5.351507880000042 L -0.5966690749999088,5.344305731000077 L -0.6128637359999516,5.332017320000091 L -0.6294652989999463,5.326727606000077 L -0.6377660799999489,5.340887762000079 L -0.6895238919999542,5.304754950000074 L -0.7023005849999322,5.299994208000044 L -0.7607315749999088,5.252183335000041 L -0.7844945949999556,5.224269924000055 L -0.7995499339999128,5.214829820000091 L -0.8738907539999445,5.204006252000056 L -0.8968399729999419,5.205023505000042 L -0.9114884109999366,5.218003648000092 L -0.9182836579999503,5.209418036000045 L -0.9277237619999141,5.206122137000079 L -0.9524633449999556,5.2044131530000755 L -0.9765518869999141,5.198309637000079 L -0.9883927069999459,5.1987979190000715 L -0.9934789699999556,5.2077497420000896 L -0.9970596999999088,5.216782945000091 L -1.0050349599999322,5.214544989000046 L -1.017323370999918,5.2044131530000755 L -1.033802863999938,5.202948309000078 L -1.0497940749999088,5.19867584800005 L -1.1541235019999476,5.1538760440000715 L -1.1647029289999296,5.139227606000077 L -1.1736547519999476,5.130560614000046 L -1.1940811839999128,5.11859772300005 L -1.2336319649999155,5.100734768000052 L -1.2541397779999102,5.096502997000073 L -1.3192439439999362,5.094549872000073 L -1.3299861319999309,5.091538804000038 L -1.3531388009999432,5.077785549000055 L -1.3640030589999128,5.073431708000044 L -1.3741348949999406,5.072658596000053 L -1.3947647779999102,5.073919989000046 L -1.4049373039999296,5.073431708000044 L -1.4234513009999432,5.067450262000079 L -1.4597061839999128,5.049750067000048 L -1.5292862619999141,5.039862372000073 L -1.5518692699999406,5.031398830000057 L -1.5687963529999251,5.019273179000038 L -1.5694880849999322,5.018784898000092 L -1.5838516919999392,5.025376695000091 L -1.6014705069999309,5.0266787780000755 L -1.6184789699999556,5.022447007000039 L -1.6308487619999141,5.012640692000048 L -1.6324356759999432,5.00454336100006 L -1.6254776679999168,4.989488023000092 L -1.627756313999953,4.981594143000052 L -1.6340225899999155,4.974432684000078 L -1.6381729809999115,4.970689195000091 L -1.7066544259999432,4.936916408000059 L -1.7188207669999542,4.927679755000042 L -1.7476700509999432,4.895900783000059 L -1.7499080069999309,4.888576565000051 L -1.7481176419999542,4.881903387000079 L -1.7486059239999463,4.877183335000041 L -1.7574356759999432,4.875433661000045 L -1.7667537099999322,4.874701239000046 L -1.8354386059999115,4.855129299000055 L -1.9120987619999141,4.820868231000077 L -1.928089972999942,4.806789455000057 L -1.9522598949999406,4.772447007000039 L -1.9672745429999168,4.75812409100007 L -1.9814346999999088,4.7524274760000935 L -2.0503637359999516,4.743638414000088 L -2.0638321609999366,4.738185940000051 L -2.090565558999913,4.737127997000073 L -2.096587693999936,4.738470770000049 L -2.103871222999942,4.745062567000048 L -2.1066788399999155,4.755357164000088 L -2.105620897999927,4.766546942000048 L -2.1079809239999463,4.775580145000049 L -2.1209610669999392,4.779201565000051 L -2.129017706999946,4.780340887000079 L -2.144154425999943,4.784979559000078 L -2.1553848949999406,4.786078192000048 L -2.1543676419999542,4.790676174000055 L -2.163726365999935,4.800523179000038 L -2.2062882149999155,4.8344587260000935 L -2.2274063789999445,4.843410549000055 L -2.237049933999913,4.8491885440000715 L -2.241118943999936,4.85805898600006 L -2.2428279289999296,4.865383205000057 L -2.247222459999932,4.873032945000091 L -2.252756313999953,4.879136460000041 L -2.356597459999932,4.919623114000046 L -2.5257869129999335,4.9544131530000755 L -2.690419074999909,5.010199286000045 L -2.8208715489999463,5.020086981000077 L -2.964995897999927,5.045314846000053 L -3.10374915299991,5.087713934000078 L -3.1196182929999168,5.09133535400008 L -3.1153051419999542,5.107814846000053 L -3.108306443999936,5.109605210000041 L -3.0989884109999366,5.113226630000042 L -3.087635870999918,5.114976304000038 L -3.0161026679999168,5.114447333000044 L -2.994496222999942,5.1081403670000896 L -2.98851477799991,5.102240302000041 L -2.976307745999918,5.08462148600006 L -2.97093665299991,5.080877997000073 L -2.957753058999913,5.08266836100006 L -2.937245245999918,5.091294664000088 L -2.9263402989999463,5.094549872000073 L -2.9290258449999556,5.122015692000048 L -2.9012345039999445,5.133612372000073 L -2.8653051419999542,5.13930898600006 L -2.8436986969999225,5.149115302000041 L -2.803855142999879,5.147568054000104 L -2.7808849689999136,5.150875346000106 L -2.766622272999939,5.161029765000066 L -2.7570104569999216,5.179865825000078 L -2.762488158999929,5.186299540000036 L -2.7756656489999045,5.197539164000091 L -2.77881791199988,5.201001486000038 L -2.7796447349998914,5.2101223760001005 L -2.775407267999924,5.231025492000086 L -2.7748905029999094,5.239577942000011 L -2.7793346759999054,5.251075948000036 L -2.793287312999894,5.271100566000072 L -2.796129515999951,5.284975688000131 L -2.789566608999877,5.346858216000058 L -2.755873575999914,5.34070872000008 L -2.742592732999924,5.343137512000055 L -2.7326708579999206,5.355720724000065 L -2.7301387129999455,5.373161520000096 L -2.734427855999911,5.391144918000094 L -2.7617130129999055,5.454913636000114 L -2.7794380289999197,5.52648549400007 L -2.7818151449998822,5.578885397000093 L -2.7855875249998974,5.595034282000086 L -2.793442341999935,5.608134257000046 L -2.8062580979999154,5.618495382000063 L -2.877494059999975,5.6368146770000465 L -2.8937462969998933,5.630355123000086 L -2.9263024499999233,5.610718078000048 L -2.945861978999858,5.60828928700009 L -2.969503946999879,5.621440938000063 L -2.974904133999928,5.647279155000078 L -2.964801390999895,5.709781799000069 L -3.029758666999953,5.704252421000064 L -3.019965982999878,5.818353984000069 L -3.02252396699987,5.854501648000081 L -3.034719604999907,5.890700989000024 L -3.0732443849999527,5.960955099000017 L -3.087765462999897,5.996689352000118 L -3.1180736899999317,6.16347503700004 L -3.1393643799999325,6.2192855840001044 L -3.168794107999929,6.24605397600007 L -3.1717218909999474,6.249584688000084 L -3.183599405999928,6.263908183000126 L -3.262509317999985,6.617142436000094 L -3.261114053999904,6.633937277000072 L -3.2539051919999338,6.644427592000113 L -3.23548254399995,6.654582011000073 L -3.230056518999959,6.661119080000049 L -3.2104194749999238,6.715999451000059 L -3.2127449139998703,6.722665711000076 L -3.226232462999917,6.748581441000113 L -3.2387381589999222,6.76462697400008 L -3.2430789799998934,6.774755554000123 L -3.241683715999926,6.810903219000053 L -3.224940551999879,6.8494021610001 L -3.109598754999922,7.046392721000132 L -3.0972741139999016,7.0540533750000805 L -3.096592622999907,7.054476971000042 L -3.0954652499999042,7.055177714000109 L -3.0459333909999486,7.07124908500009 L -3.040869099999952,7.078328755000101 L -3.0326008709999144,7.128351542000104 L -3.0275365799999463,7.138428447000138 L -2.9816995849998875,7.195530905000055 L -2.9728112379998777,7.214961243000033 L -2.97208776899987,7.228603821000135 L -2.9765319419998946,7.236717021000047 L -2.9832240399998966,7.244985250000084 L -2.9895285649999153,7.258937887000087 L -2.9904587399999514,7.270668437000069 L -2.941521158999876,7.577161357000051 L -2.928162800999928,7.617675679000058 L -2.85594498699993,7.771568095000063 L -2.8520692549999467,7.778131002000052 L -2.8420181879999404,7.7902749630000585 L -2.838168294999889,7.796837870000033 L -2.8379099119999296,7.802263896000099 L -2.840829630999906,7.815234681000035 L -2.840002806999877,7.820247294000097 L -2.831398680999939,7.828360494000009 L -2.809151976999914,7.841693014000029 L -2.8011938069999474,7.850219625000136 L -2.7978865159999486,7.861278381000133 L -2.793545694999864,7.935950826000038 L -2.790625976999877,7.943288880000125 L -2.7843472899998574,7.944012349000033 L -2.7776810309999576,7.939619853000124 L -2.772616739999876,7.933935446000078 L -2.771221476999898,7.930731507000104 L -2.754891723999947,7.944374084000117 L -2.7092614339998704,7.996722310000052 L -2.6908646249999606,8.009744772000076 L -2.631178344999853,8.029588521000079 L -2.6105594479999468,8.040001322000094 L -2.6006892499999594,8.052946269000117 L -2.5997590739999055,8.070387064000059 L -2.60621862799988,8.094313253000067 L -2.619447793999967,8.123097026000082 L -2.6218765869999174,8.135731913000114 L -2.6176391189998753,8.151493225000095 L -2.610662800999876,8.164851583000114 L -2.6042549239999175,8.170794373000135 L -2.5959866949998798,8.17027760900001 L -2.583274291999942,8.164334818000086 L -2.571750446999914,8.163120422000063 L -2.558107869999901,8.16769378700009 L -2.513201049999907,8.194022929000056 L -2.5063280839999322,8.209267477000097 L -2.5523459469999352,8.489366659000098 L -2.598363809999938,8.769465841000098 L -2.6031180419999203,8.785149638000064 L -2.6121614179998858,8.780963847000123 L -2.6123816859999067,8.781321221000027 L -2.6172257079998644,8.789180400000063 L -2.614641886999948,8.801918640000025 L -2.60725215599993,8.808559062000114 L -2.5966584879999743,8.81439849900002 L -2.5955732829998794,8.828066915000122 L -2.6159337969999115,8.897830099000075 L -2.6171740319999515,8.91501251300005 L -2.619447793999967,8.923616639000088 L -2.625028848999875,8.925993754000032 L -2.631746785999894,8.926975607000102 L -2.6376895749999107,8.931471456000025 L -2.653295857999865,8.978393657000069 L -2.654329386999933,8.998831685000113 L -2.6607889409999075,9.014903056000094 L -2.6860587159999625,9.028261414000028 L -2.7113284919999217,9.033894145000147 L -2.736960001999904,9.035134379000084 L -2.7508092849999457,9.037408142000103 L -2.7586641029998873,9.042860006000083 L -2.7650719809999202,9.049474589000084 L -2.7748388269998827,9.054978129000077 L -2.765433715999933,9.06911163300012 L -2.7612996019998945,9.084795431000074 L -2.7593875729998842,9.134818217000074 L -2.755201781999858,9.143138123000128 L -2.7339110919998575,9.164842225000129 L -2.7164961349999146,9.200266418000055 L -2.7048172609999597,9.218404847000087 L -2.6730879319999303,9.234889628000062 L -2.6611506749999023,9.253906556000032 L -2.6598070879999227,9.272897645000086 L -2.6755167229999017,9.281501771000123 L -2.6929833579999354,9.285325826000062 L -2.7071427009998956,9.295635275000066 L -2.714997517999933,9.311060689000058 L -2.713343871999882,9.329922587000084 L -2.7030602619999797,9.343255107000104 L -2.6894176839998636,9.34953379400011 L -2.6775321049999263,9.357001038000135 L -2.67241613799996,9.374028422000066 L -2.67241613799996,9.4010035190001 L -2.677377074999896,9.41777252200005 L -2.6786689869998668,9.425549825000061 L -2.674586547999951,9.457485861000052 L -2.675671752999932,9.471722718000109 L -2.6892109779999203,9.488724263000037 L -2.7252811279999207,9.533863627000088 L -2.7610928949999334,9.566238912000088 L -2.766260538999859,9.57652252200009 L -2.7680175369999347,9.592800599000014 L -2.766467244999916,9.608897807000076 L -2.761506306999962,9.625253398000027 L -2.7529280199999278,9.639903666000109 L -2.740163940999963,9.650833231000078 L -2.743404468999927,9.653325351000134 L -2.751015991999907,9.65917897600005 L -2.7542199299998913,9.668351542000039 L -2.7554601639999134,9.67749827000003 L -2.7605244549998815,9.685585633000116 L -2.7692577719999463,9.689926453000098 L -2.7748388269998827,9.68930633600013 L -2.7803165279999575,9.690236512000084 L -2.788481404999885,9.699254049000032 L -2.795302693999929,9.720002136000076 L -2.79158199099993,9.740931091000064 L -2.7748388269998827,9.774339905000133 L -2.740267293999892,9.812606303000038 L -2.7339110919998575,9.822786560000097 L -2.7367532959999323,9.832579245000062 L -2.7605244549998815,9.870535584000066 L -2.7648652749998632,9.895753683000123 L -2.7555635169999277,9.941151428000055 L -2.7543749599999217,9.966782938000023 L -2.760886189999894,9.98476633700011 L -2.7835721439999475,10.018511048000079 L -2.788481404999885,10.038768209000082 L -2.788481404999885,10.124447734000057 L -2.798920043999914,10.169612935000131 L -2.798454955999887,10.18953420000014 L -2.785380818999954,10.210101420000044 L -2.7651236579999363,10.22583689400011 L -2.75768225199991,10.234647726000105 L -2.7543749599999217,10.247954407000108 L -2.7549433999998882,10.260796000000099 L -2.7583540449998907,10.26611867300005 L -2.7648652749998632,10.269115906000067 L -2.7748388269998827,10.275239563000127 L -2.7844506429999,10.2788052370001 L -2.7931839599998796,10.278546854000126 L -2.7996693519999383,10.280923970000075 L -2.8020981449998885,10.292318624000075 L -2.8056896569999594,10.29901072200009 L -2.814216267999882,10.301077779000053 L -2.8244482019998713,10.302214661000065 L -2.833181518999936,10.30598704100008 L -2.841294718999933,10.322290954000024 L -2.841294718999933,10.343271586000114 L -2.836282103999878,10.363657939000063 L -2.8294608159999086,10.378282369000118 L -2.8223294679998787,10.387584127000054 L -2.8146296799998822,10.393707784000114 L -2.8049403479999455,10.397118429000045 L -2.791995401999941,10.398151957000039 L -2.7810399989998587,10.40241526300008 L -2.771893269999879,10.41182037300004 L -2.7675524489999077,10.42119964600009 L -2.771428181999852,10.42548879000006 L -2.795871134999885,10.426108907000113 L -2.8121492109999053,10.428821920000061 L -2.8244482019998713,10.435023092000051 L -2.8595623369999146,10.465615540000059 L -2.867391316999914,10.478250428000095 L -2.8704402259998574,10.497784119000102 L -2.8733857829999465,10.502486674000082 L -2.8868991699999356,10.515793356000088 L -2.8915242109998758,10.52165863100008 L -2.8942113849999203,10.531425476000038 L -2.8958650309998575,10.552767843000126 L -2.8982938239999214,10.562612204000104 L -2.9282661549999602,10.615218811000105 L -2.9325036219999276,10.634313253000087 L -2.929661417999853,10.644209290000077 L -2.9162513839999065,10.668083801000066 L -2.9101535649998596,10.684491068000028 L -2.9073371989998975,10.688315125000074 L -2.9051151119998906,10.692733459000067 L -2.905140950999879,10.699193013000112 L -2.9080348299998775,10.703637187000126 L -2.9126340339999217,10.705807597000032 L -2.9169490159999043,10.706608582000044 L -2.9189127199999234,10.706608582000044 L -2.919959289999923,10.711088218000057 L -2.922323363999851,10.7212071740001 L -2.919274454999936,10.727201640000132 L -2.908577433999909,10.737666118000078 L -2.9030997309999407,10.747148743000054 L -2.899482380999956,10.769989726000063 L -2.882661702999883,10.797068176000025 L -2.8716287849998707,10.843447774000111 L -2.864239054999871,10.864273377000075 L -2.8508031819999076,10.879543763000115 L -2.834861002999901,10.891610209000106 L -2.8213992919999384,10.906260478000078 L -2.81576656099989,10.9291531370001 L -2.8217610269999227,10.948299256000013 L -2.832716430999909,10.966024272000112 L -2.8387108969999417,10.985118714000109 L -2.835946207999882,10.99222422300005 L -2.8373414719998777,10.998011984000115 L -2.751119344999921,10.996461691000093 L -2.750705932999921,10.985842184000106 L -2.7287975939999,10.986057355000057 L -2.6349507239998786,10.986979065000114 L -2.4397688399999424,10.988942769000047 L -2.1978714599999023,10.991294047000082 L -1.972872273999883,10.993516134000089 L -1.7540742599999248,10.995634868000067 L -1.598683226999924,10.997133484000074 L -1.5870043539999301,11.003670553000049 L -1.5798213299999873,11.021214702000108 L -1.5624063719999413,11.026589050000084 L -1.4360574949999148,11.02271331800003 L -1.4235840929999313,11.017911405000092 L -1.4135530849998759,11.014049746000055 L -1.3803503009998792,11.001267599000101 L -1.3552872319998812,10.996720072000059 L -1.2280598549999127,10.995479838000037 L -1.1075504149998778,10.99434295600011 L -1.0987137449999693,11.009561666000053 L -1.0703433839999548,11.013902486000035 L -0.93247066299989,11.003102112000093 L -0.9240474039999071,11.001422628000043 L -0.9164509689999534,10.99620330800012 L -0.909474649999936,10.982689921000144 L -0.9043586839998738,10.979485983000075 L -0.8939200439999127,10.979899394000086 L -0.900586303999944,10.966230978000084 L -0.883171345999898,10.968633932000031 L -0.8607954509999161,10.99292185500012 L -0.839401407999901,10.996461691000093 L -0.8336653239998668,11.003412171000079 L -0.8277742109999338,11.00584096300014 L -0.8221414799999138,11.003618876000132 L -0.8169738369999209,10.996461691000093 L -0.8169738369999209,10.99620330800012 L -0.7030174949999264,10.994158812000066 L -0.6959993089999443,10.994032898000043 L -0.69465572099989,10.982741598000061 L -0.6902115479998656,10.981811422000106 L -0.6832352299998945,10.984343567000096 L -0.673933471999959,10.98351674400007 L -0.6679906829999425,10.976514588000072 L -0.6722798259999081,10.968504741000089 L -0.6797729079999328,10.960572408000047 L -0.6827701419998675,10.953596090000048 L -0.6347627359999137,10.907965800000056 L -0.6172444249998534,10.918636983000056 L -0.6071158449998961,10.94121958400008 L -0.5998294679999105,10.965765890000057 L -0.5905793859999164,10.982431539000075 L -0.5762133379998886,10.987754212000127 L -0.5554394119999415,10.989950460000031 L -0.5164753829999711,10.988632711000065 L -0.5129613849999259,10.989743754000074 L -0.5097057699999255,10.991449077000127 L -0.5067085369999234,10.993671163000045 L -0.5042280679999465,10.99620330800012 L -0.5042280679999465,10.99635833700006 L -0.494822956999883,11.007804667000073 L -0.46851965299993026,11.020129496000024 L -0.4566857509999238,11.029612122000103 L -0.45125972499994305,11.040205791000076 L -0.4490376379999361,11.06289174400004 L -0.44438675999987254,11.077438660000098 L -0.4252148029999603,11.101468201000031 L -0.4058878169999218,11.101468201000031 L -0.38692256699997074,11.08640452100012 L -0.36893916799988347,11.065217183000073 L -0.3188130289999549,11.101364848000088 L -0.30612646499992024,11.113534648000012 L -0.29829748599988193,11.128391622000038 L -0.30054540999989854,11.13740916000009 L -0.3044728189999546,11.146788432000037 L -0.3016822919998958,11.16293731700003 L -0.1661091709999596,11.134980367000125 z" /></g></svg>