<svg xmlns="http://www.w3.org/2000/svg" xmlns:xlink="http://www.w3.org/1999/xlink" width="100.0" height="100.0" viewBox="-3.6275223385071134 4.372176983034656 5.180478995079976 7.155789116049464" preserveAspectRatio="xMinYMin meet"><g transform="matrix(1,0,0,-1,0,15.900143082118776)"><path fill-rule="evenodd" fill="#66cc99" stroke="#555555" stroke-width="0.1431157823209893" opacity="0.6" d="M -3.325172351900923,6.714512926862323 L -3.3269427293328935,6.717510588608415 L -3.330652658716191,6.725235036475912 L -3.3349934797161622,6.735363616475954 L -3.338121448438658,6.743660068908771 L -3.3405022378368603,6.752200979465632 L -3.3421171312608022,6.7609192035123185 L -3.3429534331755595,6.769746202459087 L -3.343004568967596,6.778612582578938 L -3.3416093049676285,6.814760247578868 L -3.3408204632186767,6.824014487088441 L -3.3391764359641467,6.833155624577385 L -3.336691405112547,6.842104805650088 L -3.333386807340234,6.850784831788795 L -3.316643643340187,6.889283773788842 L -3.3112362210299007,6.899929950449678 L -3.195894424029944,7.09692051044971 L -3.1905956990837154,7.105039929365806 L -3.1845355911218567,7.112608056021819 L -3.1777710660376766,7.119553748930114 L -3.1703657113475456,7.125811717570512 L -3.162389138459025,7.131323136130643 L -3.1500645040764086,7.1389837860173975 L -3.1493830201242607,7.139407377636612 L -3.14825559566083,7.1401081526249035 L -3.1376007743427055,7.145867281141855 L -3.1303828680351518,7.148702971257655 L -3.129124832203059,7.154488200425653 L -3.12601084572778,7.1640527551635165 L -3.1219517593681694,7.173256093526688 L -3.1168874683682013,7.183332998526722 L -3.11167021300977,7.192479643069867 L -3.1055200766940954,7.201026963303271 L -3.0843594316057414,7.227388308487599 L -3.0863760843164756,7.234026885369714 L -3.0881630756874685,7.242468724865146 L -3.089215654295456,7.251033190435201 L -3.090145829295492,7.262763740435182 L -3.0903803353010093,7.274627577372873 L -3.0892078890892436,7.286435667389097 L -3.0402703080891684,7.592928587389079 L -3.0386925395717963,7.600777512439645 L -3.036491951304971,7.60847506979401 L -3.023133593305023,7.648989391794017 L -3.0186904324341115,7.660158004111999 L -2.9464726184341132,7.814050420112004 L -2.942051137276409,7.82241817744409 L -2.9401833996052744,7.825580880292503 L -2.939496372987024,7.831509631864708 L -2.938669548986995,7.83652224486477 L -2.9367307701362932,7.845618560178199 L -2.9339552768414374,7.854495409432492 L -2.9303670776233774,7.863076006269821 L -2.925997211056864,7.871286126969549 L -2.92088347728114,7.879054752496904 L -2.915070111021872,7.886314682830513 L -2.9086073989527446,7.8930031182547955 L -2.900003272952807,7.901116318254707 L -2.8955190385363023,7.904908747415441 L -2.8933771584814894,7.941754178403335 L -2.892188537777773,7.952370008948427 L -2.889874316642218,7.962798482368596 L -2.8864609023461094,7.9729206007329765 L -2.8835411843461225,7.980258654733063 L -2.8794806553836554,7.989167482085578 L -2.8745684090107555,7.99763653963786 L -2.8688515316142755,8.005584647153839 L -2.8623848223798136,8.012935617969239 L -2.8552302680135657,8.019618989279614 L -2.8474564485681353,8.025570697562266 L -2.839137880067751,8.030733692657785 L -2.8303543002341685,8.035058484624923 L -2.8211899041599393,8.03850361812692 L -2.8117325372555086,8.04103606980206 L -2.8020728532061496,8.042631564809417 L -2.8018823209950057,8.042653519104677 L -2.7846434322658955,8.062430409481173 L -2.7763142739834454,8.070910696221462 L -2.7670377251801486,8.078342774207576 L -2.7486409161802388,8.091365236207599 L -2.7403483173160366,8.096643357689187 L -2.731577578502703,8.101081814962303 L -2.722413447672613,8.104637721095198 L -2.71801154516404,8.106101210669392 L -2.7200786626382527,8.116854616045234 L -2.7213829597127486,8.125808113851846 L -2.7218726347935696,8.134842854144006 L -2.721543679091332,8.143884872833297 L -2.720398785645111,8.152860146245754 L -2.7184473272755243,8.161695197126383 L -2.714209859275482,8.177456509126364 L -2.7108006929557824,8.187837703783785 L -2.70627925553564,8.197784975830249 L -2.6993029375356405,8.211143333830268 L -2.693466349570172,8.220919152451328 L -2.6865563594245536,8.229968153776223 L -2.678662542951695,8.238173033439164 L -2.6722546659517366,8.244115823439184 L -2.664493517840517,8.250614870443506 L -2.65611508659406,8.256295972609202 L -2.6472052285376617,8.261100913959885 L -2.6378552456882676,8.264980456804693 L -2.6281609501550207,8.267894846291831 L -2.6182216823235303,8.269814217788591 L -2.617624782836372,8.269867777124922 L -2.6916230063542605,8.720276390771593 L -2.6918210855444498,8.720512731487757 L -2.697290465302136,8.7284943767778 L -2.7023547553021148,8.73671092977774 L -2.70690646229086,8.744938312461182 L -2.7106653209016933,8.75355682998306 L -2.713598099869157,8.76249028787232 L -2.7156788711213298,8.77165970733744 L -2.7168892390043715,8.780984023501045 L -2.7172185029145646,8.790380802077165 L -2.716663751900065,8.799766968155126 L -2.7152298903960044,8.809059540647088 L -2.712646069396088,8.82179778064705 L -2.710427370811778,8.830643909205616 L -2.70741196100721,8.839251110701642 L -2.7047263938796755,8.845134676484763 L -2.709736041383652,8.862299712720798 L -2.712708189261809,8.865348785801187 L -2.7189545251008806,8.873196179208861 L -2.724383349399973,8.881629811963426 L -2.7289400491124094,8.89056484315755 L -2.7325787846161327,8.899911387901103 L -2.7444255382230565,8.935530103385354 L -2.7531610177667774,8.93645546996618 L -2.767010300766819,8.9387292329662 L -2.77569790690572,8.940554868954576 L -2.7841893721689823,8.943143780862993 L -2.7924177774865777,8.9464755661376 L -2.800318276896758,8.950523967829191 L -2.80782860858052,8.955257081517516 L -2.8156834265804616,8.960708945517496 L -2.82339170579856,8.966634436563462 L -2.826267131094879,8.969327373910152 L -2.8321170799565993,8.97300739191527 L -2.8397677899544136,8.97892400505108 L -2.846811156546387,8.985552025986516 L -2.8531812963107015,8.99282945642951 L -2.8588186231673687,9.0006882235326 L -2.8636704057444833,9.00905481664413 L -2.8676912606257603,9.017850974924494 L -2.8708435768655303,9.02699441939548 L -2.8730978678003045,9.03639962257515 L -2.8744330468660633,9.045978608499134 L -2.874836624841289,9.05564177564492 L -2.87430482667074,9.065298735061596 L -2.872842626777191,9.074859155865138 L -2.8704637025308477,9.084233610190573 L -2.867190306311669,9.093334409697308 L -2.8630530573613298,9.102076425803013 L -2.860552179374756,9.106260072964412 L -2.859314602446572,9.138637743929001 L -2.8583354791631743,9.149285831381883 L -2.856224981079841,9.159768495482606 L -2.853007239726378,9.16996587697937 L -2.8487190469018357,9.179761378554474 L -2.8445332559018097,9.188081284554528 L -2.839427099395696,9.19704634045879 L -2.833424405979469,9.20543757001007 L -2.8265890713601936,9.21316565271369 L -2.8165587356430293,9.223390752487326 L -2.8062379298469455,9.244384557779894 L -2.800575047226472,9.254402695289862 L -2.7993409616730944,9.256319350370651 L -2.8041094405318336,9.26568376465884 L -2.807941022412657,9.274162111961344 L -2.8109680537864223,9.282959865865243 L -2.813164331642579,9.29200087002794 L -2.8145108442548756,9.301206862450066 L -2.8149959357533096,9.310498152937909 L -2.8146154070212934,9.319794312928757 L -2.8129617610212425,9.338656210928782 L -2.8116854632497774,9.348059053867656 L -2.8095236742739336,9.357298591721817 L -2.8064958593586056,9.366291629482946 L -2.802629281673343,9.374957191688503 L -2.7979587568082516,9.383217251544167 L -2.792526339286096,9.390997433495738 L -2.7822427292861938,9.404329953495758 L -2.777414856901906,9.410001087968572 L -2.778442209044318,9.418818988286201 L -2.778624315393576,9.4285385246681 L -2.7778618183988906,9.438229817075959 L -2.777724616451075,9.439303118194431 L -2.798348788043502,9.465112880247267 L -2.8281547929881445,9.492058713576125 L -2.834721639070908,9.498572021673054 L -2.840658615914949,9.505664197347242 L -2.8459149346723502,9.513274569411788 L -2.8504456292970923,9.521338033683275 L -2.855613273297018,9.531621643683277 L -2.859270153280013,9.539790905489829 L -2.8621819368734167,9.548254422842513 L -2.864325297892517,9.556944394834172 L -2.8656830659558503,9.565791206438371 L -2.867440063955926,9.582069283438296 L -2.868015881524948,9.592225192833205 L -2.867556975608738,9.602387056189423 L -2.866006683608719,9.618484264189485 L -2.864567071022791,9.628299459875068 L -2.863374139402541,9.633073264394671 L -2.8692092709660764,9.640237003525487 L -2.874927206185495,9.648983546144201 L -2.879701180996818,9.65827902652207 L -2.883479065127095,9.668021940996328 L -2.890300354127139,9.688770027996371 L -2.892915942967647,9.698284548059279 L -2.8945810970115873,9.7080105266229 L -2.895279603087471,9.71785326436562 L -2.8950046600234582,9.727716925112098 L -2.8937589448685963,9.737505468965145 L -2.8900382418685973,9.758434423965133 L -2.8879014704809665,9.767811527613002 L -2.884873783738304,9.776939998337838 L -2.8809831864909645,9.785735401560252 L -2.8642400224909172,9.819144215560321 L -2.859848802941923,9.827002073492645 L -2.854768758265625,9.834433216506936 L -2.854077756506455,9.835270980127675 L -2.8569619848909693,9.844081797342849 L -2.8590751269988344,9.85357194498732 L -2.863415946998816,9.878790043987376 L -2.8645664959945756,9.888029271555649 L -2.864852764128059,9.897335459798196 L -2.8642722698241485,9.906627936078127 L -2.8628300452189857,9.915826146623568 L -2.8563378783177122,9.947511526686458 L -2.8665614740473258,9.962718834400981 L -2.8711692684503394,9.970274715344885 L -2.875090974966125,9.978208398228826 L -2.878295877571129,9.986457743984177 L -2.8807588744726753,9.994958141172654 L -2.885668135472613,10.015215302172658 L -2.887775596791935,10.026908045579471 L -2.8884814049998853,10.038768209000082 L -2.8884814049998853,10.113042003699444 L -2.8963516428324927,10.147094419309097 L -2.8978901746151986,10.155298143838767 L -2.8987391995480296,10.163601596907736 L -2.898892802629123,10.171946929872847 L -2.898427714629096,10.191868194872855 L -2.897807845440099,10.200892164601289 L -2.8963751079934545,10.20982320770275 L -2.894141224412178,10.218588253716117 L -2.8918395620644337,10.225094271979627 L -2.8982362737302387,10.23004048816863 L -2.905506173672982,10.23692804935942 L -2.912050730056609,10.244508202792954 L -2.917804307561579,10.25270492715264 L -2.922709203591122,10.261436017535505 L -2.930822403591119,10.27773993053545 L -2.934549304168036,10.286185797233642 L -2.9374814663023185,10.294939360931483 L -2.9395939013892343,10.303926021612595 L -2.9408686067389636,10.31306919275095 L -2.941294718999933,10.322290954000024 L -2.941294718999933,10.343271586000114 L -2.9405689946436877,10.35529731655621 L -2.9384023550917764,10.367148499800983 L -2.9333897400917213,10.387534852800933 L -2.9309517473901208,10.39570674720124 L -2.932436480749672,10.39713664417996 L -2.9388962424111513,10.404737535333341 L -2.944566615315085,10.412944175216934 L -2.9523955953150844,10.42557906321697 L -2.957228131815601,10.434326098707869 L -2.9611635215991066,10.443511780291711 L -2.9638822747000577,10.45215375083547 L -2.9654228497392814,10.453873797537575 L -2.9700478907392216,10.459739072537566 L -2.97582687068314,10.467871443210349 L -2.9807667688724284,10.47653916885386 L -2.984818417481827,10.485655977807529 L -2.9879414896172958,10.495131128591996 L -2.9906286636173403,10.504897973591955 L -2.9927202424637755,10.514220680123136 L -2.993912557995082,10.523700445036424 L -2.994337039400108,10.529178907737098 L -3.0151534269223306,10.565715255795574 L -3.0196546073037918,10.57462138761499 L -3.0232457432244555,10.583931787800298 L -3.025891074221483,10.593553743564456 L -3.0301285412214503,10.612648185564439 L -3.0317991330012917,10.62246413932108 L -3.0324852711040617,10.632397569723079 L -3.0321801528941585,10.642349992941844 L -3.0308868034302248,10.652222736846733 L -3.028618045473557,10.661917919278306 L -3.0257758414734823,10.671813956278296 L -3.0219331290825338,10.682757069882637 L -3.0179441280971098,10.690936491306482 L -3.0197011261768236,10.698456977662374 L -3.021485931658741,10.708292640508871 L -3.0222798473074572,10.718257352857 L -3.022074939857796,10.728251541527188 L -3.020873256863722,10.73817533879537 L -3.0186868062379975,10.747929580329162 L -3.0155374362621545,10.757416796095312 L -3.0114566172658126,10.76654218433677 L -3.0084077082658975,10.772536650336802 L -3.002967686313763,10.781932280707602 L -2.9974512782613796,10.789443550604043 L -2.996204104670128,10.795384768238083 L -2.9931962430983323,10.804885457123032 L -2.9892577061582863,10.814039595383706 L -2.984427607586581,10.82275627297963 L -2.9761848461284757,10.836025726446605 L -2.9689140568294015,10.866590286505332 L -2.9658715596859953,10.87688875812828 L -2.9584818296859954,10.897714361128243 L -2.954878430326819,10.906516762758566 L -2.950455045893499,10.91493700215886 L -2.9452516933124473,10.922898904150248 L -2.939315445629309,10.930330439983953 L -2.9297395552038776,10.941213807450348 L -2.9341197600963755,10.955166270983788 L -2.936561091613206,10.964494955512716 L -2.9380925684320247,10.974015408935152 L -2.938699950199156,10.983639105834177 L -2.938377589208364,10.993276560789036 L -2.937211622917357,11.002201744305562 L -2.9372081023756818,11.003174942200848 L -2.9362523552697906,11.012730583483954 L -2.9343844150763183,11.022150484348371 L -2.931621508637005,11.031347770952006 L -2.92798911650639,11.040237622484582 L -2.9235207379606223,11.048738053416809 L -2.9182575820546357,11.056770669601534 L -2.9122481875768584,11.064261391253837 L -2.905547975406388,11.071141136142456 L -2.898218737400958,11.077346456691918 L -2.890328066529357,11.082820125119754 L -2.8819487335038416,11.087511661212478 L -2.8731580156614624,11.091377797872955 L -2.8640369842836155,11.09438288014573 L -2.854669756926422,11.096499194040325 L -2.845142721657226,11.097707222120016 L -2.835543740351592,11.09799582349891 L -2.7493216133516354,11.096445530498887 L -2.739256794500707,11.095755597639188 L -2.729312708638711,11.094055085298118 L -2.7195905632764927,11.091361300709703 L -2.7101893070902654,11.087701660293787 L -2.707390587146733,11.086272425216649 L -2.6359447907682116,11.086974124751052 L -2.4407748783589556,11.088937708306096 L -2.1988512191928695,11.091289247548012 L -1.9738598236358944,11.093511257609775 L -1.7550425661700242,11.095630179805976 L -1.645292750609771,11.096688624652625 L -1.6436071576413673,11.098230078335645 L -1.6357577676383155,11.10410689068115 L -1.6273705496445172,11.109186695902693 L -1.6185261466324605,11.113420651750905 L -1.6093095974015783,11.11676804880519 L -1.5918946394015323,11.122142396805165 L -1.5812267979980976,11.124802040817226 L -1.5703314617848694,11.126274520114343 L -1.5593403298232669,11.126542035875298 L -1.4329914528232404,11.122666303875244 L -1.4218122829165478,11.121693487391175 L -1.4108124890220006,11.11947431051858 L -1.4001305807772,11.116036717179623 L -1.3876571787772165,11.111234804179686 L -1.3776261724814518,11.107373145835751 L -1.353221435401701,11.097978001836724 L -1.3458052901276332,11.096632391653467 L -1.2271007923413044,11.095475240122235 L -1.1510535494903769,11.094757812993363 L -1.1508693157550696,11.094883389137891 L -1.1421618436292005,11.099629766487988 L -1.133027067409649,11.103490340563306 L -1.123554825947749,11.106427143324773 L -1.1138382770036952,11.108411291855028 L -1.0854679160036806,11.11275211185501 L -1.0740251408591495,11.11383468634822 L -1.0625337263669554,11.113597065830913 L -0.9246610053668907,11.10279669183097 L -0.912916906007527,11.101171733124493 L -0.9044936470075441,11.099492249124443 L -0.8946765834891618,11.097012140513318 L -0.8851606462901469,11.093551993974321 L -0.8809403391768673,11.091513086523287 L -0.8806400603465508,11.091692260177421 L -0.8717810867356636,11.095863177652621 L -0.8658899737357305,11.098291969652681 L -0.8568671491759202,11.101515415955399 L -0.8475772457149533,11.103860551940697 L -0.8381055464958798,11.105305848798446 L -0.8285390035826063,11.1058380384189 L -0.8189654397228284,11.105452235196552 L -0.8094727421179128,11.104151980880946 L -0.8001480556010829,11.101949212062738 L -0.7910769826306908,11.098864150593425 L -0.7854442516306709,11.096642063593418 L -0.7835915181830116,11.095807503628981 L -0.7011103663738788,11.094140688872859 L -0.6942054873469664,11.094016807724945 L -0.684666982042433,11.093388714969802 L -0.6752320288036947,11.091852732764014 L -0.6659868419539186,11.089422896541878 L -0.657015901776858,11.086121409559732 L -0.6484011825564302,11.081978440007966 L -0.6421956067115239,11.078225714142883 L -0.636789923635482,11.076362620671551 L -0.6310586669036238,11.0737396625019 L -0.6253218102511218,11.076202344462912 L -0.6109557622510939,11.081525017462964 L -0.6030462954178409,11.084086929164163 L -0.5949513509796746,11.08598295967396 L -0.5867268836672981,11.08720000304982 L -0.565952957667351,11.089396251049724 L -0.5520593815449223,11.089893320646118 L -0.5518798776851984,11.089887249892202 L -0.5451297165616343,11.094229373782312 L -0.5437787527828907,11.094937282770823 L -0.5396370310395051,11.107891670801603 L -0.5364756821722628,11.116421097239545 L -0.5325523412897629,11.124627962557094 L -0.5278994721710905,11.132444358848556 L -0.5225555750943769,11.139805609153646 L -0.5033836180944646,11.163835150153579 L -0.4967872205046205,11.171306507483928 L -0.489479868028456,11.178084135484205 L -0.4815341472591048,11.184100709507398 L -0.47302898593441967,11.189296464732784 L -0.4640488689190112,11.193619789831667 L -0.45468299898532194,11.19702773964149 L -0.4450244107300044,11.199486461755779 L -0.43516904642739407,11.200971532792426 L -0.4252148029999603,11.201468201000031 L -0.4058878169999218,11.201468201000031 L -0.39631333259684204,11.201008791958772 L -0.3942037999231334,11.200703251794351 L -0.39076282688916475,11.208375828241506 L -0.3857712030300804,11.217058062022227 L -0.3799361884814018,11.225197478302919 L -0.37331630697573176,11.232712440779508 L -0.365977954264421,11.239527576262981 L -0.35799473218483235,11.245574530653553 L -0.34944671045237086,11.250792654515156 L -0.34041962358131755,11.255129611374077 L -0.3310040109891526,11.258541902640651 L -0.32129430890890326,11.26099530388922 L -0.3113879032174098,11.262465208120531 L -0.3013841526794034,11.262936872563769 L -0.2913833924040134,11.262405566542855 L -0.281485927508785,11.260876618923936 L -0.14591280650884875,11.232919668924032 L -0.13676543930409168,11.230578198618634 L -0.12787969145039582,11.227384408542525 L -0.11933478544104412,11.223366773509191 L -0.11120690493216509,11.218561113470955 L -0.10356851551355739,11.213010274159695 L -0.09648771862860799,11.206763745087978 L -0.09002764440354744,11.199877218316344 L -0.08459691973751853,11.192865326284307 L -0.0763346092337478,11.195022078473418 L -0.06462659422396574,11.197342111341493 L -0.05272555763578916,11.198250679503559 L -0.03391533663579375,11.198560737503541 L -0.024499544372083088,11.198272180256033 L -0.01515268270878459,11.197098900116593 L -0.005957696078807837,11.195051308821196 L 0.003003818830198471,11.192147576778789 L 0.036386793830165035,11.179564366778857 L 0.04611532251739882,11.175294187456853 L 0.05533590201837181,11.170015966589304 L 0.06394445162863703,11.163789284048175 L 0.07184379915770371,11.15668442581768 L 0.07894477779610934,11.148781590615215 L 0.08516723261878953,11.140169984618648 L 0.10025675161880374,11.116760560618598 L 0.10496570890641177,11.108642370052777 L 0.10889287059546623,11.100118480220809 L 0.11200364652196834,11.091263968944935 L 0.1142706371903074,11.08215682613782 L 0.1156738751060915,11.072877266872899 L 0.11887781410606535,11.04192308287289 L 0.11940256442193399,11.032781309311702 L 0.11908889668409023,11.023629861377726 L 0.11624669268410065,10.988205667377796 L 0.11481502958332121,10.977566569459304 L 0.11243791358338703,10.9650350354593 L 0.11005220641822097,10.955203925470112 L 0.10668542215732743,10.94566416205386 L 0.10237201725269984,10.936513377364765 L 0.09715613609183306,10.92784522265842 L 0.09109115921381017,10.91974840984309 L 0.08423915700046909,10.912305803581448 L 0.07754100545956424,10.905731234087536 L 0.06588213615134876,10.851638531909805 L 0.06657775909440151,10.848964950450165 L 0.06871327441118845,10.838486370909743 L 0.06971760531531512,10.827839663705719 L 0.06957926617261974,10.81714658570475 L 0.06829983904413077,10.806529424074819 L 0.06643948804412596,10.795909917074832 L 0.06444798951633061,10.786971677870579 L 0.06164718824735026,10.778253094343976 L 0.058060571248689824,10.769827278955328 L 0.05371821524005227,10.761764889064425 L 0.0486565344314218,10.754133534410748 L 0.04291797516010287,10.746997210150441 L 0.03655065994343287,10.740415760204554 L 0.027920694943478264,10.732276722204544 L 0.021649847039935603,10.726836291707267 L 0.014949338334576373,10.721934761281524 L 0.013513172303605681,10.720973075408702 L 0.011402150807281866,10.704392332004893 L 0.01386378576895321,10.703214960075524 L 0.02169809689299789,10.698546959467917 L 0.028829443893009947,10.693844403467933 L 0.036246103365362214,10.68844997199947 L 0.03697160111799341,10.687812913740533 L 0.05144330089326404,10.683076721280385 L 0.06204725240949915,10.678924051706748 L 0.07211030119089204,10.673592682129446 L 0.0812053531908842,10.668089142129453 L 0.09014866306891114,10.661992791484375 L 0.0983807163434817,10.654965588509734 L 0.10580507592412328,10.64708985568164 L 0.11371156992414835,10.637736421681607 L 0.1202771135209431,10.629051238152723 L 0.12585954189480456,10.619703764210392 L 0.12857196283992992,10.61454296340396 L 0.1629399394080957,10.593197227401692 L 0.16994187892936385,10.588425795014631 L 0.17651475758200105,10.583078740657182 L 0.18261138622236467,10.577194452823868 L 0.1984502122223571,10.560554642823938 L 0.2042225247450813,10.553930575019729 L 0.20939111270862967,10.546825396302918 L 0.21391607571683083,10.53929395713705 L 0.2329071313727262,10.504287624864364 L 0.23310704171695218,10.504350274811767 L 0.24331542916101442,10.506967546492143 L 0.2537425683860531,10.508495961631644 L 0.2642726542436797,10.508918545455286 L 0.2747887382469728,10.50823060469281 L 0.28517402741540465,10.506439779702745 L 0.2954059614153941,10.504114340702813 L 0.30436553424243573,10.50163494870817 L 0.3130561493872159,10.498334261156845 L 0.3214027013978832,10.494240803029616 L 0.3293330582619485,10.48938995053601 L 0.33677868478072936,10.483823625388395 L 0.3436752348596517,10.477589932508963 L 0.353545432859639,10.467797248508901 L 0.3598779935784263,10.46089657156957 L 0.3655371758954068,10.453433708648323 L 0.37047333708555824,10.445474124476835 L 0.3746431768134427,10.437087641058744 L 0.37801011696663955,10.428347825186373 L 0.3805446225213889,10.419331343107919 L 0.3822244606257919,10.410117288006003 L 0.3828366895499215,10.403068497240229 L 0.39044474291003833,10.401603309046104 L 0.4001226407778734,10.398701233836391 L 0.40945829970913195,10.394837398956081 L 0.4190442777091218,10.390289872956043 L 0.4296896323024265,10.38442209862865 L 0.43954440767905,10.377306077812865 L 0.45995659967900226,10.360588751812916 L 0.4670668974562189,10.354172723796085 L 0.473530819243519,10.347105937742926 L 0.47928907681908717,10.3394532114518 L 0.48428885443674896,10.331284737067476 L 0.4884842932612375,10.32267543726648 L 0.4918369119934554,10.31370427805321 L 0.4943159598276848,10.304453544469917 L 0.49589869850335827,10.2950080858639 L 0.4965706108643644,10.285454537634442 L 0.4963255340129437,10.275880526597769 L 0.4951657158368658,10.266373867258553 L 0.4931017943914091,10.257021756359913 L 0.4901527003252562,10.247909973099627 L 0.4863454832452714,10.239122092348312 L 0.4817150636127728,10.230738718086094 L 0.47630391244695003,10.22283674408879 L 0.47016166177324403,10.215488648644744 L 0.46334464938972386,10.20876182977128 L 0.46072987622830225,10.206634658977627 L 0.46052458749220676,10.205744550039755 L 0.4583243769514197,10.199401843005326 L 0.4587254577462881,10.191236089432193 L 0.458572740693076,10.178944432410002 L 0.4565285141966381,10.151342340489226 L 0.4584317844705717,10.149786783189988 L 0.46529995667833424,10.143623460537935 L 0.47157073126806126,10.136853252148704 L 0.4771907073670615,10.129533811990095 L 0.482112026194271,10.121727471196245 L 0.4862927786176671,10.113500707266056 L 0.4896973620454613,10.104923577951885 L 0.49229678361184515,10.096069124659389 L 0.49406890707540996,10.087012750439058 L 0.4970661390755079,10.066781426439064 L 0.49798238139002726,10.057841058015281 L 0.4980922466916194,10.048854533818051 L 0.4973948476016763,10.039894437722516 L 0.49589581699085583,10.031033140144864 L 0.4923202860130416,10.01446360588168 L 0.49165835177081796,10.011396104393548 L 0.4890513377236416,10.001703045587737 L 0.485485739639019,9.992320166415862 L 0.48099748159912936,9.983342001178887 L 0.47563178366154524,9.974859006607529 L 0.4694427062585096,9.966956650493414 L 0.4682909395511627,9.965756493849758 L 0.4693735205708265,9.95976031068455 L 0.47015475985294924,9.949627309793533 L 0.46990347074416294,9.939467344456137 L 0.4692833547441697,9.931276630456114 L 0.46809046040288416,9.921695085630452 L 0.46597905780210536,9.912273250500654 L 0.4629688313367507,9.903098963891717 L 0.4590878450465789,9.894257756758574 L 0.45437228097795884,9.885832054789574 L 0.4488661018622761,9.877900409960054 L 0.44262064125579276,9.870536768200127 L 0.4424993460706415,9.870418967094329 L 0.4435650755161885,9.860973559687146 L 0.44415842755310886,9.847035395388158 L 0.4438483685531228,9.835666580388075 L 0.44278866517772036,9.823622215576357 L 0.4402831000030334,9.811793782116384 L 0.42774717185951766,9.766362369490029 L 0.43091775103773405,9.761109570404173 L 0.43502034935213335,9.75258151597711 L 0.43829842262288715,9.74370383267166 L 0.44294930162294016,9.72900188767176 L 0.44529599739035475,9.720211452018114 L 0.4468340296715021,9.711244111458736 L 0.4491077926714504,9.693054007458695 L 0.44983449131457015,9.683667264945905 L 0.44967520312737114,9.674253782423865 L 0.44918832956307314,9.669889637396864 L 0.4522226359739268,9.66581406833766 L 0.4573186724775343,9.657331496287618 L 0.4615513814895036,9.648386788855273 L 0.4701296694895274,9.627664539855243 L 0.4733522264535781,9.618691697752478 L 0.47570564101775403,9.60945274712609 L 0.47716852140410515,9.600031667051972 L 0.47772757050260717,9.590514092103847 L 0.4773777067375954,9.580986533962664 L 0.47707002967133916,9.578670632951939 L 0.5174909559424408,9.56406872150467 L 0.5267032050706233,9.560210528409442 L 0.5354846493061977,9.555452648093876 L 0.5437476926997136,9.549842540979334 L 0.5514099104117044,9.543436168550743 L 0.5583948709102523,9.536297435134129 L 0.5646328983845995,9.528497550443376 L 0.571040775384643,9.51960920444344 L 0.5759483710960334,9.512115899527338 L 0.5801657509534701,9.50421350613228 L 0.583659077183229,9.495965428411706 L 0.5864003213917329,9.487437844086616 L 0.5868734318449882,9.485336164771972 L 0.5968812316458575,9.476657972624913 L 0.6040738783948474,9.469764007890841 L 0.610544836304662,9.462188546139911 L 0.6162298740536954,9.45400678210014 L 0.6210725614359267,9.445299928711668 L 0.6250248294923202,9.436154410999652 L 0.6280474476477212,9.426661008211555 L 0.6342486196478109,9.403199907211574 L 0.6364691249197353,9.3924351977969 L 0.6374948192838038,9.381491817902345 L 0.6373133113661555,9.3705019740763 L 0.6359267939569093,9.35959843419611 L 0.6277552819816966,9.31506369577615 L 0.6264545234628633,9.29201588318028 L 0.6255870454949548,9.283360166460149 L 0.6239705948800554,9.274812591519058 L 0.6216174039384595,9.266437841232849 L 0.617483288938517,9.253854629232825 L 0.6142408988043496,9.245320660701164 L 0.6102337516898981,9.237117948668876 L 0.6054952438455112,9.2293148559429 L 0.6019997449528701,9.22459114843843 L 0.603622621127294,9.215493709973595 L 0.6043736293595026,9.205053145238146 L 0.6046836873594708,9.18911096623821 L 0.6044367687588572,9.179879839905743 L 0.6033393703609221,9.170710849834993 L 0.6014008501934294,9.161682184279025 L 0.5986377389216165,9.152870834878343 L 0.5950735988835055,9.144351940117282 L 0.5907388231628605,9.136198144583114 L 0.5786465381628947,9.11578595458307 L 0.5728968654070463,9.107138239875303 L 0.5662813687370596,9.099133434426346 L 0.560496715335143,9.093453706781474 L 0.5571661731598065,9.073094951400368 L 0.5547363611064807,9.062141022578368 L 0.5510947284041708,9.051528244689738 L 0.5462871204931253,9.041390224694416 L 0.5406728376506063,9.031087372407333 L 0.5791380265698144,8.966230160062349 L 0.5835870851782973,8.957845343305674 L 0.587221105657544,8.949076468252331 L 0.5900073457466686,8.940002541830408 L 0.6025130417466737,8.891116636830331 L 0.6044395450311516,8.881735306558785 L 0.6054597849507125,8.872212708012407 L 0.6055644037859936,8.86263618320075 L 0.6047524419649554,8.853093568749244 L 0.6030313468641498,8.843672390254866 L 0.6004169045008081,8.83445905949462 L 0.5969330947422704,8.82553808185003 L 0.5926118713607905,8.816991281217263 L 0.5874928689510672,8.808897049512018 L 0.5758772702320057,8.792342106847624 L 0.5754529260143117,8.789205737908006 L 0.5736400653005131,8.781031200784872 L 0.570126067300468,8.767827872784784 L 0.5672081533406935,8.758662770062106 L 0.5634232218249426,8.749820393502892 L 0.5588062884149716,8.741382546877018 L 0.5534000658990996,8.733427291513252 L 0.5472545690419818,8.726028224127896 L 0.540426651881367,8.719253795957073 L 0.5329794817524638,8.713166679491533 L 0.5249819549058888,8.707823188672585 L 0.5165080591255117,8.703272757913066 L 0.5055009791256123,8.698027600913132 L 0.5021031709221492,8.696613146583207 L 0.5142725344137137,8.679726179526437 L 0.5395764153468989,8.662595386620778 L 0.546531861600288,8.657433537732539 L 0.5530145389219963,8.651689165593533 L 0.558975812376065,8.645405366158906 L 0.5722950832308408,8.630088204129207 L 0.5879078145075518,8.615793214620068 L 0.601543413271569,8.605999391478107 L 0.6585985422861983,8.579384163388188 L 0.6673187156216569,8.574779849221771 L 0.6755430075556227,8.569339063053542 L 0.6831914441423865,8.563114711704063 L 0.690189651118819,8.556167321470422 L 0.6964695771281237,8.54856444956165 L 0.7019701554589342,8.540380027164797 L 0.7066378978649269,8.531693640529678 L 0.7241045318648859,8.494951697529697 L 0.7284301270689048,8.48431779060715 L 0.7321901081432117,8.473301045896456 L 0.7486514067396979,8.45973489506287 L 0.7557861426035661,8.453252943712394 L 0.762263628257073,8.44611415328504 L 0.7680236748069098,8.438384857527936 L 0.7730127598146204,8.430136877172544 L 0.7771845246278973,8.421446852575352 L 0.7805002051458708,8.412395531574536 L 0.7829289920157121,8.403067019179842 L 0.7850994020157029,8.392705894179825 L 0.7861259104444762,8.385826063164979 L 0.7891967256535043,8.382068525472922 L 0.7945190472651312,8.374108769533262 L 0.7990556799825675,8.365676463470052 L 0.8027650297695151,8.356848918731302 L 0.805613087518495,8.34770707050378 L 0.8075737408627434,8.338334735660197 L 0.8115011488626963,8.313736752660219 L 0.8125994229703195,8.303490448167995 L 0.8126373867864843,8.29318552116624 L 0.8116146371621829,8.28293140272686 L 0.8095420349785897,8.272836984370588 L 0.806441589812148,8.263009461715681 L 0.8023462262083589,8.253553196135886 L 0.7948014672084034,8.238334487135848 L 0.7902965968700041,8.230217692445798 L 0.7850584579293552,8.222553613033066 L 0.7791321906840623,8.215408295031494 L 0.7725688654608529,8.20884331408555 L 0.7654250425108423,8.202915244714742 L 0.7577622845947094,8.197675172775831 L 0.7417425905946875,8.187779135775841 L 0.72948286715942,8.18133330634759 L 0.6929034828117585,8.165228097698296 L 0.692281422763539,8.164821070738485 L 0.6924779017606013,8.163275243560403 L 0.6932537860663653,8.15277412428574 L 0.6929211616565565,8.142249635534327 L 0.6914837165210322,8.131818468104024 L 0.6889573884049609,8.12159627808786 L 0.6853701880982718,8.111696404531278 L 0.6805481883521336,8.100301018961543 L 0.6830193960332083,8.069067698864979 L 0.6902654864362131,8.039676253779414 L 0.6922717447326245,8.02913211023871 L 0.6931363414446353,8.01843367540531 L 0.6936531054445753,7.999261718405384 L 0.6936647982307572,7.994348689549884 L 0.6930265455860197,7.965587398387293 L 0.7016036152062217,7.907818304382458 L 0.7023202841522771,7.90299132774571 L 0.7031815828779728,7.894979725867713 L 0.7033950534754952,7.886924787602872 L 0.7026869674747173,7.835632751936091 L 0.7104302118015903,7.786973500306212 L 0.7115036984898481,7.77707128936014 L 0.7115868013253969,7.767111407372429 L 0.7097976539873965,7.724001492605149 L 0.7112878768593976,7.713569935171144 L 0.7122004821606794,7.703726705354759 L 0.712136770644852,7.693841465727069 L 0.7110973649137281,7.68401081684817 L 0.7090924222502443,7.674330825806323 L 0.706141535359438,7.664896087430948 L 0.7022735409045737,7.655798799892828 L 0.6975262377094389,7.6471278637249425 L 0.6919460173805969,7.638968013068486 L 0.6855874109592286,7.631398987633713 L 0.6785125560327742,7.624494753467369 L 0.6707905895138656,7.618322780141523 L 0.6672466616763503,7.616024120857125 L 0.6658638869246052,7.606417732908845 L 0.6633600876316639,7.596440468087906 L 0.6598445690529552,7.586773206152423 L 0.6541601620529086,7.573337334152378 L 0.6498252930167289,7.564365368998817 L 0.6446190606518579,7.5558693468213205 L 0.6385931562068361,7.5479336222862194 L 0.6318074092287362,7.540636987018731 L 0.6243291935320547,7.534051887302595 L 0.6162327582626465,7.528243704780857 L 0.6075984906983873,7.523270107299523 L 0.5967063509572941,7.517699318105831 L 0.5959384954924728,7.506036216191676 L 0.5971069183041496,7.494437184396342 L 0.5978645827651066,7.494674511554745 L 0.6074634763172905,7.49667496693679 L 0.6172121391027522,7.497725753811976 L 0.627016846912867,7.4978167698544285 L 0.6367833367188973,7.496947140030644 L 0.6464177129222103,7.495125225012114 L 0.655827350072001,7.4923685407953435 L 0.6649217833717413,7.488703590302052 L 0.6736135784129729,7.484165608578539 L 0.6818191717747735,7.478798224043919 L 0.6894596744073265,7.472653039043965 L 0.6964616300758139,7.465789133743172 L 0.7027577215729123,7.458272498124634 L 0.7093723045728991,7.4495391811246545 L 0.7151138275182541,7.441095100760576 L 0.7199643045652335,7.432109531699921 L 0.7238731609640042,7.422676164295815 L 0.7267996400152589,7.412893357986293 L 0.7428193340152239,7.34731596598627 L 0.7446883084477505,7.3376045036829645 L 0.7455888864496649,7.327755923848266 L 0.7455122598668921,7.317866551074183 L 0.7442720248669373,7.296214125074209 L 0.743247202358249,7.286561253934727 L 0.7412912967211925,7.277053224930319 L 0.7384227380990822,7.267779630490121 L 0.7276688933011187,7.238185716079852 L 0.7198510519957919,7.199183370375793 L 0.7176284151312851,7.190250585969393 L 0.7145937903639106,7.181560027621167 L 0.6960538070044152,7.135408997493478 L 0.6947384534518313,7.120302358760124 L 0.6982697870890897,7.084537330327982 L 0.6987398819189197,7.073048929367457 L 0.6980164129190258,7.029537373367444 L 0.6973729190582232,7.019752983631536 L 0.6957742614950927,7.010078653636705 L 0.6932358110610195,7.000607400485891 L 0.6897819745423611,6.991430288731345 L 0.6854459600131818,6.98263555480383 L 0.6663256800130867,6.948219051803784 L 0.6614255217561138,6.9402928077404225 L 0.6558088239137592,6.932857109976053 L 0.649524360146604,6.925976527801944 L 0.6458416901066717,6.922631251309865 L 0.6461484380970028,6.919288550112003 L 0.6461376413793707,6.910024310508867 L 0.6452695503187497,6.900800825814679 L 0.6428924343187871,6.883954308814703 L 0.6409975805208202,6.874117080761846 L 0.638127972936939,6.8645188059692535 L 0.6343124113869523,6.8552558141880935 L 0.6342386810233479,6.855117902209559 L 0.6435302885785833,6.837886947449888 L 0.6593716021418088,6.829192972222113 L 0.6666463896292276,6.824787931297368 L 0.6735205800807287,6.819780694117817 L 0.6799444545950335,6.8142074764870175 L 0.6945172085950615,6.80043570648697 L 0.7020885035519965,6.792447175363625 L 0.708736020409268,6.7836749660372435 L 0.7143792303919547,6.77422534604886 L 0.7228541653919642,6.758076461048882 L 0.727233897501338,6.748547555997343 L 0.7305916011861466,6.738612370503545 L 0.73289034772124,6.72838017380887 L 0.7341048550129753,6.717963501745804 L 0.7351383840129583,6.701737101745796 L 0.7351983896399339,6.6900490210678125 L 0.7342901242558689,6.681959980297119 L 0.7346518923147258,6.681885982267 L 0.7438605306685294,6.679541572444787 L 0.7528050709860922,6.676333695225639 L 0.7614047482921857,6.672291316226004 L 0.7695819115617226,6.667450936219335 L 0.7772627248718433,6.66185626155134 L 0.7843778341054327,6.655557809492324 L 0.7971935891055092,6.643077951492332 L 0.8037471702632923,6.636051867707497 L 0.8095962090442659,6.62842926810619 L 0.8146867098835346,6.6202805209295645 L 0.8189716796804012,6.61168085156481 L 0.8224115616164881,6.602709648099892 L 0.8249746003256115,6.593449728450202 L 0.8266371350443315,6.583986575822657 L 0.8273838180369504,6.574407549575083 L 0.8272077562785638,6.5648010787558695 L 0.8265876392785811,6.555473481755846 L 0.8254905418595521,6.545928759740432 L 0.8234825509672519,6.536533371846641 L 0.8205822014301044,6.527374042522901 L 0.8168162650234425,6.518535317270958 L 0.8158448062706185,6.516752378241471 L 0.8166599964844338,6.515137809831761 L 0.8240543134892991,6.503828853889898 L 0.8263008883622515,6.501532722314652 L 0.8603277034640202,6.48480405801664 L 0.8695517577909071,6.4796469935256775 L 0.8946665037908359,6.463808167525671 L 0.9032043561264862,6.457777833303274 L 0.9110660923178339,6.450889222601773 L 0.918165815150553,6.443217600280663 L 0.9334983533359873,6.424806385596191 L 0.9839429179230786,6.424601326785765 L 0.9935520769416505,6.42409932168328 L 1.0030685030311315,6.422676092731013 L 1.0124040855568737,6.420344817313526 L 1.0214723882776442,6.417127080231105 L 1.030189449641029,6.413052673850526 L 1.0384745601662035,6.408159322263652 L 1.046251009716438,6.402492332007812 L 1.0534467977425,6.3961041725818815 L 1.0599952999209503,6.389053990641963 L 1.0658358850150722,6.381407062374649 L 1.0709144762470373,6.373234189118215 L 1.0751840519836866,6.364611041827572 L 1.0786050811001742,6.355617460452431 L 1.098079423038234,6.295924366787257 L 1.1033718095882956,6.2927475627904945 L 1.1105823653921687,6.287491702005973 L 1.1172957148610603,6.2816140216390615 L 1.1234584088659048,6.275161317540027 L 1.1311065208659599,6.266402162539949 L 1.1386320568854071,6.256421657846566 L 1.1874743429682668,6.25087278367098 L 1.1975680740180896,6.249199267813811 L 1.2074379704755964,6.246503121351089 L 1.2169807102556858,6.242812568639115 L 1.2260963960822404,6.238166243882719 L 1.234689601253391,6.232612786696707 L 1.242670368606992,6.226210332926624 L 1.2499551522287335,6.2190259060591035 L 1.2564676920447078,6.211134715592785 L 1.2682499190446201,6.19527005159278 L 1.2738880684549172,6.186811795228086 L 1.2786384026386723,6.177824851662758 L 1.2824518359987227,6.168402083730129 L 1.2852889640118332,6.158640857672868 L 1.2871204703989034,6.148642037049522 L 1.2879274300525116,6.138508940502998 L 1.2877015045916198,6.128346274160456 L 1.285127847591649,6.093189623160433 L 1.2839691548417045,6.0836655809170574 L 1.2819030849808608,6.074296413137981 L 1.2789486561717625,6.065168362965335 L 1.2751330639166896,6.056365454054901 L 1.2704914307230974,6.047968717138782 L 1.265066482801113,6.040055444137923 L 1.2589081567689844,6.032698476690368 L 1.2520731399867644,6.0259655356443504 L 1.2446243487494455,6.019918597688227 L 1.2366303491427821,6.014613324855371 L 1.2281647258928179,6.010098552155441 L 1.2193054050188532,6.006415838048357 L 1.2192189519858505,6.006384674747344 L 1.1877705203601052,5.989503020638761 L 1.1664423199144975,5.972936936425996 L 1.126726175364668,5.930420294634442 L 1.1229778090157576,5.924784638968793 L 1.1063201926566404,5.891744284381558 L 1.1062652089900138,5.891512291900909 L 1.1053747041738553,5.878971017766399 L 1.103264523652105,5.864450796223403 L 1.0929292376520623,5.817738557223416 L 1.0899643994878212,5.807141161580082 L 1.0858531079106277,5.79693369659955 L 1.0771454259106625,5.7783383185995065 L 1.0726986465158683,5.769912367268247 L 1.0674701899692367,5.761947836838728 L 1.0615075152337403,5.754517021754136 L 1.0548647458077702,5.747687371896631 L 1.0231264638077782,5.71802428589666 L 1.0151244713217715,5.711293747695213 L 1.0064634267436776,5.705435562392279 L 0.9972380230305256,5.700513778715947 L 0.9875491233922324,5.696582207525402 L 0.9471031603922078,5.682584811525365 L 0.9365180461471464,5.679562699111872 L 0.9256648937164278,5.677722348782077 L 0.7347469247164304,5.656075213782111 L 0.7255005961267894,5.655458946690204 L 0.7162369215043353,5.655701248166627 L 0.3639415445176933,5.681287838662175 L 0.3363552118156491,5.679824927614504 L 0.3300945243713364,5.675924469588205 L 0.3250489513713752,5.673076162588183 L 0.3166550024131543,5.668844986050063 L 0.3079008446129943,5.665420667837651 L 0.29886383078948914,5.662833465649237 L 0.28962381311195995,5.661106240322621 L 0.2810826025214096,5.660328897725236 L 0.27503335701561255,5.656401576919471 L 0.2671473339503766,5.652229790261122 L 0.25892087908885286,5.648777457119676 L 0.25041946938789456,5.646072055706824 L 0.2014092112887131,5.6328517917676875 L 0.18271378956666567,5.615456200385314 L 0.1755218450377945,5.609370489687118 L 0.16778910483770576,5.603988606205806 L 0.1595842047226443,5.5993583195073 L 0.15097997133746544,5.59552072798893 L 0.14205277580676628,5.592509894090297 L 0.13436921037700691,5.5903157377095525 L 0.12943543774736893,5.583202046048278 L 0.12195653621651445,5.574672965023338 L 0.1058432552165118,5.558274853023348 L 0.09895042864327891,5.551889945186616 L 0.0914887855560613,5.546180130067787 L 0.0835241959269859,5.541195812833436 L 0.07512696964500576,5.536980994092204 L 0.06637123583351551,5.533572881465756 L 0.0058604190214104155,5.513237532965674 L -0.0006632325351520127,5.5074376083678676 L -0.006522607535152013,5.502798936367869 L -0.015425851729029258,5.496508390282104 L -0.02496092639328231,5.491224350314423 L -0.03501451791419425,5.4870096113232645 L -0.04380357991419954,5.483876473323255 L -0.05185504387121219,5.4813833783002845 L -0.060087855146559926,5.479577163155531 L -0.06844352653610188,5.478470659529408 L -0.0731781830980027,5.478045754357728 L -0.2771388384312655,5.412224549480607 L -0.2861544256668979,5.4097736838273685 L -0.2953593945087933,5.408174901705485 L -0.3206419154240158,5.404991850290013 L -0.3654347580137158,5.36759007473715 L -0.3675981970239316,5.362234237958074 L -0.37281279735146056,5.352550025037866 L -0.37905940157352735,5.343497071257323 L -0.38626244074812033,5.335184895663107 L -0.3997308647481159,5.321268879663111 L -0.4058157195499226,5.315488247180091 L -0.41236387983417405,5.310238221774955 L -0.41932921959378305,5.305555785240839 L -0.4551772015937901,5.283583129240836 L -0.4642082760359618,5.278667633244503 L -0.47369636095309703,5.274705480915876 L -0.4835411460281724,5.271738561082853 L -0.5476664144409684,5.255959044815069 L -0.5524163269845092,5.252354839852158 L -0.5618317955692042,5.2460188255023805 L -0.571904535779476,5.240790438450303 L -0.582504814623082,5.236737018295945 L -0.5991063776230767,5.231447304295931 L -0.6084142076625269,5.228968455259578 L -0.6179173505538468,5.227396619461705 L -0.6264673197528504,5.226818122222098 L -0.6322815353762243,5.222759141520849 L -0.6393855161728669,5.218232448479246 L -0.6468452663149481,5.214319697417693 L -0.6514828087141414,5.212365502150911 L -0.6904294229509468,5.1804976247273595 L -0.7083499813343909,5.15944710541183 L -0.7153338227992811,5.152042591302478 L -0.7230341758867063,5.145386358649446 L -0.731371264268132,5.139547366602645 L -0.7464266032680893,5.130107262602682 L -0.7554971812148058,5.125055909691726 L -0.7650426106142536,5.120972243679596 L -0.7749599998028996,5.117900283035414 L -0.7851424477049701,5.1158731408992795 L -0.8594832677050018,5.105049572899245 L -0.8688788168312431,5.104131928543939 L -0.8783190315469125,5.1041043483246655 L -0.9012682505469098,5.105121601324652 L -0.9109480624783856,5.106023697872613 L -0.9157202808710142,5.106942386320321 L -0.9208322918165713,5.106359881418562 L -0.9366098620192616,5.1052699837013975 L -0.9519902209913214,5.101372933100667 L -0.9614400784837623,5.099458065220106 L -0.9710304252095728,5.098462186057665 L -0.9806721030472866,5.098394553955911 L -0.9925129230473183,5.098882835955903 L -1.0025947823656007,5.099811550972407 L -1.0125310613236258,5.101754939601537 L -1.0181164936557245,5.103448721323944 L -1.0903839886587898,5.072416540808799 L -1.0951444696493577,5.067383185668538 L -1.1040962926493758,5.058716193668507 L -1.1131743310007391,5.050923193927831 L -1.1231180959279687,5.044270137161275 L -1.143544527927934,5.032307246161279 L -1.1529200007669966,5.0274617970714335 L -1.1924707817669993,5.009598842071435 L -1.2027589661746858,5.00561979576362 L -1.2134228118363906,5.002798104138079 L -1.2339306248363853,4.9985663331381 L -1.2424920746356127,4.997183658468559 L -1.2511411270586656,4.996547966648756 L -1.2963766985933,4.995190899488821 L -1.3020674713317388,4.991810440474845 L -1.3088709974803074,4.988117485724734 L -1.3159398023496092,4.984961874760061 L -1.3268040603495788,4.98060803376005 L -1.3364167833605916,4.97731200452385 L -1.3463143850191883,4.975008586667688 L -1.356394654522733,4.973721567185222 L -1.3665264905227608,4.972948455185231 L -1.380237894605869,4.972845002758401 L -1.3882860716476728,4.973337100274574 L -1.4158340180745546,4.9598877664674115 L -1.4254317036528301,4.955807212045893 L -1.4354021807332542,4.952748441110508 L -1.4456370039334225,4.950744722839964 L -1.5043979641933656,4.942394481367743 L -1.510561673856837,4.937979131585104 L -1.511128065703068,4.9375763697585064 L -1.511819797703075,4.937088088758561 L -1.5198286673641073,4.931986613224005 L -1.528285301323959,4.927667772181995 L -1.5371134486124083,4.924170507346368 L -1.5462335084332983,4.921526352521011 L -1.5482752379556457,4.921139615992705 L -1.5524986412742794,4.915743685933184 L -1.558764917274242,4.90858222693321 L -1.5670457220640577,4.900175703442674 L -1.5711961130640537,4.896432214442687 L -1.5782941858754465,4.890598434643841 L -1.585897729274578,4.885440745999226 L -1.5939425574750967,4.881002687459572 L -1.6518359821973339,4.852451562379697 L -1.6530365353482375,4.847747099630371 L -1.6563695573699788,4.83855106001005 L -1.660585061717918,4.829724639241221 L -1.6656427160565672,4.821352285146544 L -1.6714941306809874,4.8135141012121725 L -1.6780833214910025,4.806285080188195 L -1.6853472456256862,4.799734386586638 L -1.6932164046333769,4.793924694941843 L -1.7016155094063172,4.788911590164455 L -1.7104642005180812,4.7847430357262235 L -1.7196778170718732,4.781458914763833 L -1.7291682067036505,4.779090648492283 L -1.7379979587036474,4.7773409744922875 L -1.7486987455318488,4.7758653775034805 L -1.8011609195294374,4.760916144388966 L -1.8550384532660678,4.736837118942921 L -1.8704826311885032,4.714892866197534 L -1.8764967020315713,4.707178801943996 L -1.8832356435527204,4.7000891966949245 L -1.8982502915526966,4.685766280694955 L -1.9054121740885939,4.6795553484068515 L -1.9131300028544431,4.674050499590906 L -1.9213344190804251,4.669301205355312 L -1.9299516911207906,4.665350146772131 L -1.9441118481207826,4.659653531772154 L -1.9521439900284139,4.656813385462319 L -1.9603887289900352,4.654667222807645 L -1.9687862232600606,4.653230621028973 L -2.0248553744574593,4.6460813081303955 L -2.0263071573317264,4.645493577317353 L -2.0344341617286616,4.642604782657998 L -2.0427798676465607,4.640427048104923 L -2.0512821885957644,4.63897657455175 L -2.0598778729751634,4.638264152554984 L -2.0866112709751397,4.637206209555006 L -2.0952397823733615,4.637237298554947 L -2.1038334931617024,4.638012095535785 L -2.1123284212938027,4.639524831965443 L -2.118350556293826,4.640867604965419 L -2.1282933741766863,4.64363011498054 L -2.1378985548184835,4.647402593459445 L -2.1470638116045255,4.652144866867978 L -2.155691542717168,4.657806434220161 L -2.163689870508203,4.664327004868695 L -2.170973399508209,4.670918801868694 L -2.1776921855990388,4.677605428897822 L -2.1837476676958856,4.684898179005688 L -2.188477860880517,4.691839889423933 L -2.1939515134358665,4.693814353241747 L -2.202923349154393,4.698100380157487 L -2.2114252013516023,4.7032561897058995 L -2.2193730174325053,4.709230809562159 L -2.2266882222171795,4.715965172326443 L -2.233298494765345,4.723392699487055 L -2.2391384833691204,4.731439959641323 L -2.2405746430179097,4.733900655061462 L -2.2579233202127305,4.747733156801081 L -2.2664340278298534,4.751340778571269 L -2.278802717409601,4.75762933661599 L -2.288446272409569,4.763407331616007 L -2.296765628646391,4.768976102241398 L -2.304486496906917,4.775348785175373 L -2.311531496414656,4.78246151154501 L -2.317830020145384,4.7902429955478745 L -2.323318942471181,4.798615248898959 L -2.3237770243539853,4.799494809660111 L -2.385033430232542,4.823378087201073 L -2.545928275854685,4.856462525118713 L -2.5578798092234085,4.859702826150311 L -2.710560166797266,4.911439052113859 L -2.828429408490623,4.920372996224023 L -2.8381136299480305,4.921584642730472 L -2.982237978948011,4.946812507730448 L -2.9942191762848123,4.949680124239157 L -3.1295186309310923,4.991023828096076 L -3.1418668380782244,4.9938417529695585 L -3.1515031407377485,4.996554783814333 L -3.160819897071184,5.000217694778859 L -3.169723735603719,5.0047937765850765 L -3.17812542307589,5.010237168260366 L -3.1859407587291817,5.016493316751014 L -3.193091418156474,5.023499523646727 L -3.199505738260364,5.031185573536981 L -3.205119435452598,5.039474437701905 L -3.2098762498968942,5.048283046085366 L -3.2137285093386434,5.057523119813649 L -3.2166376068708322,5.06710205591631 L -3.2185743878480846,5.07692385538264 L -3.219519442071211,5.086890085252858 L -3.219463298314022,5.096900865102059 L -3.218406519242882,5.106855868030509 L -3.2163596957777294,5.116655326128442 L -3.212046544777767,5.133134818128416 L -3.2091478661434985,5.142362539487733 L -3.205371258989356,5.151267056190691 L -3.200752054675968,5.159765063652511 L -3.1953334673282727,5.167777060311608 L -3.1891661895536463,5.175228091391974 L -3.1823079181964387,5.182048450128937 L -3.1748228145656534,5.188174329898112 L -3.166780904185503,5.193548421146648 L -3.1582574216843664,5.198120447542328 L -3.149332106950921,5.201847636324629 L -3.1400884591421323,5.204695118457506 L -3.1389211154313803,5.204993741166378 L -3.1352134037060257,5.206434729988422 L -3.1248703378579332,5.209819206640886 L -3.1142207427909625,5.212059701733183 L -3.102868202790944,5.213809375733178 L -3.09490565087822,5.214711705440655 L -3.086896415033074,5.21497356998703 L -3.0153632120330727,5.214444598987035 L -3.006159117467859,5.213951733921895 L -2.9970395015904536,5.212613496653541 L -2.9880818430821545,5.210441256614656 L -2.9798093774637207,5.208026506784625 L -2.9763732096518614,5.210096490478033 L -2.9675353513014495,5.214303383077543 L -2.9397440103014385,5.225900063077568 L -2.9285119971264293,5.229820159464158 L -2.916893938478061,5.232378672486755 L -2.894320196125397,5.235957747915879 L -2.8878578674704345,5.2388907448474065 L -2.8887117311652046,5.2411977163396815 L -2.8912531051623813,5.251033090673657 L -2.8940953081624383,5.264908212673715 L -2.8956351304556023,5.275044288712859 L -2.896129038387461,5.285284754772599 L -2.8955718404378983,5.2955219721977995 L -2.8890089334378244,5.357404500197727 L -2.8875240339392114,5.366966495370871 L -2.885121893652844,5.376340203295531 L -2.8818250054224235,5.385437851684448 L -2.877664240214184,5.394174253180151 L -2.872678558051417,5.402467603021083 L -2.866914643205757,5.41024024503421 L -2.8604264670611683,5.417419398781624 L -2.855918026866323,5.421528641560996 L -2.8565247033377323,5.423121445523772 L -2.858780620531269,5.430874510222807 L -2.876505636531283,5.502446368222763 L -2.8784022821904416,5.512130125999134 L -2.8793352888736328,5.521953665481263 L -2.8793634487011737,5.52257440600535 L -2.883894215436295,5.520155714729226 L -2.8936006627686326,5.516216262610715 L -2.903665961210233,5.513313820519821 L -2.9139796598097374,5.5114802382314965 L -2.933539188809672,5.509051447231539 L -2.9440278390674344,5.508306108761407 L -2.9545367689177175,5.508666257434227 L -2.964949783946219,5.510127911182869 L -2.9751517502430525,5.512674908894486 L -2.985029867407465,5.51627908909959 L -2.994474915751562,5.520900601345855 L -3.018116883751583,5.534052252345828 L -3.0262064118342105,5.539070855556791 L -3.0337820633802104,5.544835952818963 L -3.040775182651415,5.5512952968760185 L -3.0471223932157443,5.558390348732121 L -3.052766172307803,5.5660568081723545 L -3.0576553721395396,5.574225196495276 L -3.061745683436503,5.582821486176449 L -3.065000036998806,5.5917677717565235 L -3.067388939647583,5.6009829758738165 L -3.0698373680016675,5.612697944840863 L -3.077307983475348,5.616280479435024 L -3.0855828396535507,5.621284585379618 L -3.0933356598712276,5.627064559406119 L -3.100493944156472,5.633566350479837 L -3.1069907522997844,5.640729157542968 L -3.1127653298408977,5.648485998091563 L -3.1177636762099867,5.656764334557862 L -3.1219390497103308,5.66548675264044 L -3.125252404620119,5.674571685238783 L -3.1276727563258637,5.683934175222498 L -3.1291774710729134,5.693486669902144 L -3.129752477623469,5.703139839772268 L -3.1293923988428123,5.7128034138702075 L -3.1202691733641847,5.81910463697767 L -3.1213720782531835,5.834690127485675 L -3.126659049775113,5.850383023993321 L -3.1609265032264147,5.912873437804498 L -3.16588739207467,5.92330840936927 L -3.1804084700746147,5.95904266236937 L -3.1837913289192534,5.968778188025145 L -3.1861541607451818,5.978810197769926 L -3.214806692451504,6.136484618237197 L -3.2242954278483467,6.161358002464605 L -3.236080781819097,6.172077604594378 L -3.2457712378962116,6.182221997549368 L -3.24869902089623,6.185752709549382 L -3.260576536211224,6.200076204929309 L -3.2662565602627764,6.2076250163411 L -3.2711988921337176,6.215676139407759 L -3.2753594228826293,6.224157720088527 L -3.2787010209263094,6.232994062627807 L -3.281193863428858,6.24210630511879 L -3.3601037754289154,6.5953405581187585 L -3.361803363776359,6.605281050189011 L -3.3624931119867627,6.615342174905252 L -3.3621660051840396,6.625421608633847 L -3.3607707411839587,6.642216449633825 L -3.359375803283026,6.652501452926326 L -3.356922319615962,6.662586469652622 L -3.3534367208617133,6.672362856807323 L -3.348956556380338,6.681725296163284 L -3.3435300897044713,6.690572928834792 L -3.336321227704501,6.701063243834833 L -3.3307060619491193,6.708471532970734 L -3.325172351900923,6.714512926862323 z" /></g></svg>