<svg xmlns="http://www.w3.org/2000/svg" xmlns:xlink="http://www.w3.org/1999/xlink" width="100.0" height="100.0" viewBox="33.50215318449584 -5.065819364504265 8.77118118000854 10.484510386616266" preserveAspectRatio="xMinYMin meet"><g transform="matrix(1,0,0,-1,0,0.35287165760773576)"><g><path fill-rule="evenodd" fill="#66cc99" stroke="#555555" stroke-width="0.20969020773232533" opacity="0.6" d="M 41.06568444100009,-2.036309502999927 L 41.092784050000034,-2.0380184879999206 L 41.12273196700005,-2.0477841129999206 L 41.143321160000085,-2.0595028629999206 L 41.162771030000044,-2.090915622999944 L 41.155284050000034,-2.112074476999908 L 41.13689212300005,-2.115492445999962 L 41.123383009000065,-2.093682549999926 L 41.12427819100009,-2.104668877999927 L 41.12281334700003,-2.1158993469999245 L 41.11890709700003,-2.1242815079999104 L 41.11255944100009,-2.127699476999908 L 41.10962975400008,-2.1290015599999492 L 41.107758009000065,-2.1315243469999245 L 41.10482832100007,-2.1340471329999104 L 41.09888756600009,-2.1353492169999413 L 41.09197024800005,-2.132989190999922 L 41.08643639400009,-2.1283505189999232 L 41.08285566500007,-2.1237118469999245 L 41.08179772200003,-2.1215145809999285 L 41.06861412900008,-2.1234677059999285 L 41.050791863000086,-2.1294898419999413 L 41.01351972700007,-2.1488583309999285 L 41.00440514400009,-2.1421851539999466 L 40.99561608200008,-2.1438127579999104 L 40.988942905000044,-2.152276299999926 L 40.98617597700007,-2.165948174999926 L 40.99154707100007,-2.173760674999926 L 41.002289259000065,-2.1801083309999285 L 41.00993899800005,-2.18718840899993 L 41.00611412900008,-2.1973609349999492 L 40.99366295700008,-2.197198174999926 L 40.98585045700008,-2.191338799999926 L 40.981455925000034,-2.181573174999926 L 40.979502800000034,-2.1693661439999232 L 40.95728600400008,-2.174004815999922 L 40.957367384000065,-2.1512997379999206 L 40.96924889400009,-2.1198055969999245 L 40.98292076900009,-2.09734465899993 L 41.00114993600005,-2.0871721329999104 L 41.02466881600009,-2.0801734349999492 L 41.04517662900008,-2.0697567689999232 L 41.05396569100009,-2.049574476999908 L 41.06568444100009,-2.036309502999927 z" /><path fill-rule="evenodd" fill="#66cc99" stroke="#555555" stroke-width="0.20969020773232533" opacity="0.6" d="M 35.705938713505645,4.6199624483150075 L 35.71151833893896,4.661608022601527 L 35.73940198963447,4.681126578088339 L 35.77843910060807,4.678338213018733 L 35.781221547358086,4.619922014081439 L 35.85653615027104,4.619603495646345 L 35.92083540900012,4.619331563000088 L 35.92279911300005,4.602071635000087 L 35.93602827900014,4.578533020000094 L 35.937061808000124,4.559257711000058 L 35.93406457600008,4.5392072550001075 L 35.93375451600008,4.522179871000091 L 35.94047245300004,4.508046367000048 L 35.958352499000114,4.496858419000105 L 35.99710982300013,4.462958680000099 L 36.018400512000085,4.449135234000039 L 36.04134484800005,4.443683370000059 L 36.04532476700007,4.443716285000036 L 36.1913098550001,4.4449236040000955 L 36.225726359000134,4.449600322000066 L 36.23626835100009,4.449651998000078 L 36.24608687300008,4.446990662000061 L 36.26427697700012,4.4382056690000695 L 36.27719608600012,4.436448669000086 L 36.463024536000034,4.440169372000099 L 36.61950077300014,4.443373312000077 L 36.628182414000094,4.441461284000056 L 36.642961873000104,4.4325987750001445 L 36.64885675900007,4.431179636000138 L 36.6513334550001,4.430583394000095 L 36.844086548000064,4.43223704100005 L 36.90372115100007,4.4157780970000715 L 36.97482792200009,4.379940491000042 L 37.01565230400007,4.370587057000094 L 37.025367473000074,4.363274842000109 L 37.04107710800008,4.336816508000112 L 37.048415161000094,4.331958924000105 L 37.06846561700013,4.333457540000012 L 37.07590702300013,4.3310804240000635 L 37.08252160600006,4.32216623900004 L 37.086449015000085,4.312476909000111 L 37.091616659000124,4.2902560430000705 L 37.09482059700008,4.284881694000106 L 37.09998824000007,4.283693136000082 L 37.10598270600008,4.2838481650000375 L 37.111873820000085,4.2822978720001 L 37.16603072100014,4.247545471000066 L 37.26349247200011,4.184887798000133 L 37.36095422400007,4.122204285000109 L 37.4750557860001,4.0489787800001125 L 37.55608443200009,3.9968889370000653 L 37.647758423000084,3.937874451000127 L 37.751007934000086,3.871521912000091 L 37.84619592300004,3.8103370160000765 L 37.94593143700013,3.746232402000061 L 37.97673059100009,3.7264403280000806 L 37.99533410600014,3.7079143270001396 L 38.020758911000144,3.6671674610000764 L 38.036158488000126,3.648925680000019 L 38.048974243000146,3.6418460090000906 L 38.07884322100006,3.6326734420000975 L 38.10189091000012,3.612648824000061 L 38.11408654700011,3.6106076050000127 L 38.14560917200009,3.6184365850000404 L 38.17692509000011,3.6209170540001026 L 38.28306848200015,3.608902283000049 L 38.38993534300005,3.5968875120000803 L 38.4459525960001,3.6016675820000756 L 38.49690555800004,3.6239401250000327 L 38.49814579300005,3.6296762080000917 L 38.49731896900005,3.6385903930001007 L 38.49938602700013,3.6469102990000692 L 38.50899784300009,3.6508118690000373 L 38.51426883900007,3.6485122690001077 L 38.533182414000066,3.632828471000053 L 38.541243937000104,3.623294170000051 L 38.54320764100004,3.615387676000097 L 38.547135051000055,3.6095224000001025 L 38.561087687000054,3.606008403000061 L 38.5741101480001,3.6045614620000634 L 38.57958784900012,3.605310771000063 L 38.59374719200014,3.6108401490000688 L 38.59560754400013,3.6075070190000673 L 38.596641073000114,3.6021326700001026 L 38.601912069000036,3.5986703490000593 L 38.660306437000145,3.5944587200001195 L 38.66009973100006,3.601305847000077 L 38.661443318000124,3.615335999000095 L 38.66102990700011,3.621950582000082 L 38.68810835700009,3.586293844000096 L 38.703714640000044,3.5704291790000866 L 38.72200809800012,3.560403951000069 L 38.82071008300011,3.5337389120000324 L 38.895227498000054,3.513585103000139 L 38.92127242000004,3.513998515000054 L 38.963233684000045,3.522085877000052 L 38.97997684800009,3.5198121140000467 L 38.994963013000074,3.5142568970000383 L 39.01046594300004,3.514463603000081 L 39.0679301350001,3.5265817260000745 L 39.077541951000114,3.5242562870000427 L 39.09044144500007,3.5183343050000673 L 39.18048140500008,3.476998190000103 L 39.219445434000136,3.468704122000048 L 39.2575826420001,3.469685975000118 L 39.296337554000104,3.4919900030000974 L 39.30274784300008,3.495679220000085 L 39.315873657000054,3.4949040730000718 L 39.32052453600011,3.4845429480000547 L 39.3113261310001,3.4660944620000436 L 39.43617639200005,3.4623737590000303 L 39.46697554500008,3.4520126350001163 L 39.47565718600009,3.4407988490000747 L 39.48092818200007,3.4272596240000865 L 39.488472941000055,3.4139012660000674 L 39.50438928200009,3.4033334350000928 L 39.536325317000035,3.405012920000047 L 39.553171834000125,3.4313162230000955 L 39.574979289000055,3.497901306000088 L 39.600817505000066,3.52890716600011 L 39.66644657400008,3.588722636000057 L 39.74509810400008,3.660578715000085 L 39.76421838400006,3.685745138000115 L 39.78075484200008,3.7165701300000933 L 39.808660116000055,3.7902865600001263 L 39.82829716000009,3.8425831100001346 L 39.848450969000055,3.867284444000049 L 39.934130493000055,3.9087031050001 L 40.02022342900011,3.9501217650000626 L 40.11716841700007,3.996914774000075 L 40.16243697100009,4.019394023000075 L 40.1669844970001,4.025259298000066 L 40.166261027000076,4.031486308000069 L 40.16719120300007,4.035465393000052 L 40.17680301900009,4.034535218000087 L 40.17980025300011,4.03282989500012 L 40.182797485000094,4.032003072000094 L 40.18558801200004,4.032158102000054 L 40.286873820000096,4.0674531040000375 L 40.36573205600013,4.094867452000088 L 40.371106404000045,4.0999317420000665 L 40.37699751800005,4.116080627000144 L 40.38268192600009,4.121377462000083 L 40.51187300600009,4.171064352000087 L 40.617499634000126,4.211604512000093 L 40.70069869000014,4.2435147100000705 L 40.76374393700013,4.284933370000118 L 40.78575809700004,4.255839539000121 L 40.84601281700009,4.214989319000026 L 40.870610799000076,4.186980693000109 L 40.88735396300012,4.156052348000102 L 40.89768925000004,4.145923767000056 L 40.91587935400008,4.1366478470000345 L 40.96362837800007,4.120369771000114 L 40.97975142400014,4.110757955000096 L 41.005899699000054,4.086676737000062 L 41.07008182800007,3.996914774000075 L 41.114523560000066,3.9623432410000703 L 41.16299605300014,3.942680359000036 L 41.215292602000034,3.936608378000088 L 41.3174052330001,3.942421977000066 L 41.42954309100014,3.9488815310000263 L 41.47977258300011,3.962937520000125 L 41.506230917000096,3.964384460000119 L 41.586329386000045,3.9841506960001 L 41.60224572700008,3.9830654910001044 L 41.628704061000064,3.972084249000119 L 41.642966756000135,3.969448751000101 L 41.65743615700006,3.972704367000091 L 41.69981083200008,3.996914774000075 L 41.747353150000095,3.9814118450000535 L 41.79138147000009,3.9581574500000443 L 41.83592655400008,3.949449971000078 L 41.885019165000074,3.9772260540001128 L 41.801303344000075,3.857181702000105 L 41.71738081900014,3.737163188000096 L 41.6335616450001,3.617092998000075 L 41.54963912000005,3.49702280700005 L 41.49796268700004,3.423073832000057 L 41.44618290200009,3.349047343000038 L 41.394506470000124,3.2751500450000606 L 41.34272668500006,3.201149394000055 L 41.26066451000008,3.119810690000051 L 41.178395630000125,3.0384203090000454 L 41.096126749000064,2.957081604000038 L 41.013961222000034,2.875794576000146 L 40.97975142400014,2.8418948360000513 L 40.96538537600014,2.814144593000009 L 40.96590214000008,2.76060780800006 L 40.96714237500004,2.631726786000044 L 40.9684859620001,2.497109680000065 L 40.9684859620001,2.4229540000001037 L 40.9684859620001,2.316500550000086 L 40.9684859620001,2.2100470990000645 L 40.9684859620001,2.1036194870000458 L 40.9684859620001,1.9971660360001238 L 40.9684859620001,1.8721349080000493 L 40.9684859620001,1.7471812950001038 L 40.9684859620001,1.6221501670001288 L 40.9684859620001,1.4971448770000677 L 40.9684859620001,1.372191264000108 L 40.9684859620001,1.2472118120000601 L 40.9684859620001,1.2302950560000454 L 40.9684859620001,1.122206523000088 L 40.9684859620001,0.9972012330000268 L 40.9684859620001,0.8722476200000813 L 40.9684859620001,0.7472423300001054 L 40.9684859620001,0.6223403930000728 L 40.9684859620001,0.49728342700009875 L 40.9684859620001,0.3723298140000537 L 40.9684859620001,0.24727284800006544 L 40.9684859620001,0.12231923400011624 L 40.9684859620001,-0.002737730999868404 L 40.96962284400007,-0.08469655299992951 L 40.970449666000036,-0.15218597399987743 L 40.97117313700011,-0.219675393999907 L 40.97262007600011,-0.3282992549999193 L 40.974067016000106,-0.4367164099998888 L 40.9755139560001,-0.5452369179999579 L 40.97696089700008,-0.6538607779998813 L 40.977891072000034,-0.7243474319999308 L 40.97882124800009,-0.7948340859998808 L 40.97975142400014,-0.8707984409999199 L 41.00527958200007,-0.903768004999975 L 41.03060103300004,-0.9367375689999307 L 41.05612919100008,-0.9696037799999573 L 41.08155399500009,-1.0025733439999271 L 41.13106001800014,-1.0664454139998867 L 41.18221968600005,-1.1326946009998835 L 41.237306763000106,-1.2039047239999263 L 41.282988728000134,-1.262815855999932 L 41.33218469200011,-1.3263778679999092 L 41.38375777200008,-1.393040465999917 L 41.43419397000008,-1.458049417999888 L 41.484526815000095,-1.5231617219999691 L 41.52287072700011,-1.5727710979999472 L 41.534963012000105,-1.5947852579999306 L 41.53858036300005,-1.6136988319999688 L 41.535943705000136,-1.676312018999866 L 41.535085483000046,-1.6963029929999607 L 41.53451582100007,-1.6968726539999466 L 41.45834394600007,-1.7748348939999232 L 41.42237389400009,-1.8297665339999298 L 41.41765384200005,-1.8472632789999466 L 41.39600670700008,-1.8606096329999104 L 41.33912194100009,-1.912367445999962 L 41.303477410000085,-1.956149997999944 L 41.28272545700008,-1.9685197899999594 L 41.26734459700003,-1.9496395809999285 L 41.248708530000044,-1.957289320999962 L 41.231455925000034,-1.9554989559999285 L 41.21998131600009,-1.9440243469999245 L 41.21900475400008,-1.9224585919999413 L 41.19898522200003,-1.9431291649999594 L 41.19507897200003,-1.967054945999962 L 41.18580162900008,-1.9901669249999259 L 41.156911655000044,-1.9874813779999272 L 41.117849155000044,-1.9782854149999594 L 41.10914147200003,-1.977634372999944 L 41.09685306100005,-1.9852841129999206 L 41.07699629000007,-2.0070940079999104 L 41.04997806100005,-2.0184872379999206 L 41.03956139400009,-2.031996351999908 L 41.02865644600007,-2.043226820999962 L 41.01295006600009,-2.0424130189999232 L 40.99976647200003,-2.0355770809999285 L 40.990244988000086,-2.0289039039999466 L 40.98365319100009,-2.0193010399999594 L 40.979502800000034,-2.004978122999944 L 40.98023522200003,-1.9901669249999259 L 40.99008222700007,-1.9624976539999466 L 40.98943118600005,-1.950290622999944 L 40.986989780000044,-1.9364559879999206 L 40.99105879000007,-1.924086195999962 L 41.00611412900008,-1.9017880189999232 L 40.970713738000086,-1.9289690079999104 L 40.96664472700007,-2.04656340899993 L 40.945323113000086,-2.0731747379999206 L 40.926768425000034,-2.0592587219999245 L 40.908213738000086,-1.9977352839999298 L 40.88998457100007,-1.9838192689999232 L 40.879567905000044,-1.9777971329999104 L 40.87037194100009,-1.9672177059999285 L 40.86101321700005,-1.9634742169999413 L 40.84913170700008,-1.977634372999944 L 40.85564212300005,-1.9926083309999285 L 40.85857181100005,-2.005791924999926 L 40.85596764400009,-2.0184872379999206 L 40.87224368600005,-2.01140715899993 L 40.885101759000065,-2.014825127999927 L 40.89380944100009,-2.0260555969999245 L 40.896820509000065,-2.0424130189999232 L 40.89470462300005,-2.049086195999962 L 40.885427280000044,-2.0544572899999594 L 40.883148634000065,-2.0601539039999466 L 40.88648522200003,-2.0697567689999232 L 40.89380944100009,-2.0720354149999594 L 40.901133660000085,-2.0736630189999232 L 40.904307488000086,-2.080336195999962 L 40.90601647200003,-2.1532528629999206 L 40.91195722700007,-2.1919898419999413 L 40.924815300000034,-2.2172177059999285 L 40.93376712300005,-2.2196591129999206 L 40.94467207100007,-2.2183570289999466 L 40.95687910200007,-2.218926690999922 L 40.969493035000085,-2.227715752999927 L 40.979258660000085,-2.242120049999926 L 40.98072350400008,-2.253024997999944 L 40.969493035000085,-2.27898528399993 L 40.94483483200008,-2.309340101999908 L 40.922618035000085,-2.3137346329999104 L 40.91944420700008,-2.30242278399993 L 40.952159050000034,-2.2860653629999206 L 40.93490644600007,-2.2798804669999413 L 40.92107181100005,-2.270603122999944 L 40.896820509000065,-2.2450497379999206 L 40.89307701900009,-2.237074476999908 L 40.89437910200007,-2.2320289039999466 L 40.89372806100005,-2.22820403399993 L 40.883148634000065,-2.2240536439999232 L 40.88445071700005,-2.2263322899999594 L 40.877696160000085,-2.228692315999922 L 40.86304772200003,-2.2313778629999206 L 40.83806399800005,-2.2450497379999206 L 40.81568444100009,-2.2719052059999285 L 40.79468834700003,-2.2904598939999232 L 40.77393639400009,-2.279229424999926 L 40.77458743600005,-2.2877743469999245 L 40.77719160200007,-2.296807549999926 L 40.78256269600007,-2.3042945289999466 L 40.79078209700003,-2.3072242169999413 L 40.795583530000044,-2.3099911439999232 L 40.793711785000085,-2.3165015599999492 L 40.78695722700007,-2.327325127999927 L 40.79346764400009,-2.341973565999922 L 40.82178795700008,-2.3607723939999232 L 40.82862389400009,-2.3747697899999594 L 40.81690514400009,-2.3978817689999232 L 40.78931725400008,-2.424981377999927 L 40.758148634000065,-2.447442315999922 L 40.71176191500007,-2.4665666649999594 L 40.65056399800005,-2.539320570999962 L 40.615896030000044,-2.5525041649999594 L 40.58521569100009,-2.5458309879999206 L 40.555430535000085,-2.532403252999927 L 40.52361087300005,-2.52507903399993 L 40.490896030000044,-2.528497002999927 L 40.38982181100005,-2.5603166649999594 L 40.348317905000044,-2.590101820999962 L 40.32309004000007,-2.5980770809999285 L 40.293711785000085,-2.616387627999927 L 40.24390709700003,-2.6566708309999285 L 40.23210696700005,-2.669040622999944 L 40.223317905000044,-2.6830380189999232 L 40.20484459700003,-2.724867445999962 L 40.17497806100005,-2.7626278629999206 L 40.170664910000085,-2.779473565999922 L 40.172618035000085,-2.7872046849999492 L 40.187510613000086,-2.8070614559999285 L 40.18864993600005,-2.813571872999944 L 40.18482506600009,-2.828871351999908 L 40.18376712300005,-2.83757903399993 L 40.16488691500007,-2.901462497999944 L 40.16260826900009,-2.9342587219999245 L 40.18376712300005,-2.950290622999944 L 40.17855879000007,-2.976495049999926 L 40.19068444100009,-2.9880510399999594 L 40.211273634000065,-2.98601653399993 L 40.23210696700005,-2.970635674999926 L 40.23292076900009,-2.9818661439999232 L 40.22510826900009,-2.9937476539999466 L 40.190114780000044,-3.02703215899993 L 40.16920006600009,-3.054945570999962 L 40.16382897200003,-3.0669898419999413 L 40.15951582100007,-3.1177710919999413 L 40.15316816500007,-3.1351864559999285 L 40.119151238000086,-3.183526299999926 L 40.11841881600009,-3.19695403399993 L 40.129242384000065,-3.2333309879999206 L 40.12907962300005,-3.251885674999926 L 40.12289472700007,-3.2673479149999594 L 40.114024285000085,-3.2816708309999285 L 40.10238691500007,-3.2942033829999104 L 40.08814537900008,-3.3036434879999206 L 40.039805535000085,-3.3256161439999232 L 40.02662194100009,-3.3344052059999285 L 40.002614780000044,-3.362481377999927 L 39.98910566500007,-3.373223565999922 L 39.971446160000085,-3.376071872999944 L 39.979258660000085,-3.35906340899993 L 39.99008222700007,-3.3208960919999413 L 39.99195397200003,-3.3070614559999285 L 39.97396894600007,-3.3114559879999206 L 39.96607506600009,-3.3212216129999206 L 39.96436608200008,-3.334242445999962 L 39.96461022200003,-3.3483212219999245 L 39.963633660000085,-3.357598565999922 L 39.957774285000085,-3.3822567689999232 L 39.959646030000044,-3.387790622999944 L 39.96338951900009,-3.3932430969999245 L 39.965179884000065,-3.399183851999908 L 39.947601759000065,-3.427992445999962 L 39.92725670700008,-3.4813778629999206 L 39.90056399800005,-3.524183851999908 L 39.89014733200008,-3.58171965899993 L 39.87867272200003,-3.6050757789999466 L 39.865977410000085,-3.6164690079999104 L 39.85726972700007,-3.618259372999944 L 39.83562259200005,-3.6088192689999232 L 39.830821160000085,-3.6058895809999285 L 39.81771894600007,-3.5907528629999206 L 39.81299889400009,-3.589776299999926 L 39.78638756600009,-3.58757903399993 L 39.79053795700008,-3.578871351999908 L 39.79127037900008,-3.5748837219999245 L 39.78093509200005,-3.566582940999922 L 39.77312259200005,-3.5848934879999206 L 39.77588951900009,-3.6001929669999413 L 39.78793379000007,-3.6091447899999594 L 39.80811608200008,-3.6088192689999232 L 39.79607181100005,-3.622979424999926 L 39.80014082100007,-3.634698174999926 L 39.81421959700003,-3.6393368469999245 L 39.84896894600007,-3.625176690999922 L 39.860118035000085,-3.6332333309999285 L 39.86646569100009,-3.6485328099999492 L 39.86898847700007,-3.6633440079999104 L 39.86703535200007,-3.6949195289999466 L 39.78638756600009,-3.917168877999927 L 39.760752800000034,-3.9418270809999285 L 39.73210696700005,-3.946384372999944 L 39.711924675000034,-3.93132903399993 L 39.71208743600005,-3.8973934879999206 L 39.68995201900009,-3.9096005189999232 L 39.68376712300005,-3.917168877999927 L 39.68734785200007,-3.9271786439999232 L 39.694102410000085,-3.9372697899999594 L 39.69752037900008,-3.9467098939999232 L 39.70199629000007,-3.955824476999908 L 39.71208743600005,-3.965020440999922 L 39.73422285200007,-3.9633114559999285 L 39.74529056100005,-3.968682549999926 L 39.74244225400008,-3.9859351539999466 L 39.721364780000044,-4.009209893999923 L 39.71827233200008,-4.0162899719999245 L 39.715505405000044,-4.025160414999959 L 39.70834394600007,-4.0375302059999285 L 39.69947350400008,-4.048435153999947 L 39.69076582100007,-4.0531552059999285 L 39.68116295700008,-4.047946872999944 L 39.674489780000044,-4.024997653999947 L 39.666677280000044,-4.019707940999922 L 39.65984134200005,-4.007582289999959 L 39.66195722700007,-3.984633070999905 L 39.660492384000065,-3.9707984349999492 L 39.64307701900009,-3.985528252999927 L 39.61736087300005,-3.971449476999908 L 39.60572350400008,-3.9696591129999206 L 39.594737175000034,-3.978692315999922 L 39.60466556100005,-3.988213799999926 L 39.61646569100009,-3.9928524719999245 L 39.64307701900009,-3.999200127999927 L 39.63559004000007,-4.017022393999923 L 39.62614993600005,-4.025485934999949 L 39.594737175000034,-4.032647393999923 L 39.58448326900009,-4.03289153399993 L 39.573252800000034,-4.031833591999941 L 39.56421959700003,-4.03289153399993 L 39.560557488000086,-4.039808851999908 L 39.561289910000085,-4.0609677059999285 L 39.563243035000085,-4.070896091999941 L 39.567393425000034,-4.081149997999944 L 39.58187910200007,-4.061618747999944 L 39.61508222700007,-4.059340101999908 L 39.65007571700005,-4.0695940079999104 L 39.66968834700003,-4.087985934999949 L 39.66586347700007,-4.112074476999908 L 39.615896030000044,-4.197849216999941 L 39.58383222700007,-4.279392184999949 L 39.551117384000065,-4.402113539999959 L 39.540049675000034,-4.430433851999908 L 39.53109785200007,-4.417413018999923 L 39.522471550000034,-4.418145440999922 L 39.514008009000065,-4.426853122999944 L 39.50603274800005,-4.438083591999941 L 39.50440514400009,-4.443536065999922 L 39.50538170700008,-4.455987237999921 L 39.50220787900008,-4.4616024719999245 L 39.48796634200005,-4.474541924999926 L 39.48487389400009,-4.4789364559999285 L 39.45069420700008,-4.581963799999926 L 39.444346550000034,-4.563409112999921 L 39.44743899800005,-4.534274997999944 L 39.44385826900009,-4.5199520809999285 L 39.43100019600007,-4.5299618469999245 L 39.423838738000086,-4.543877862999921 L 39.41781660200007,-4.559502862999921 L 39.40967858200008,-4.574476820999905 L 39.40479576900009,-4.57390715899993 L 39.39771569100009,-4.570082289999959 L 39.391368035000085,-4.571058851999908 L 39.388682488000086,-4.585137627999927 L 39.390635613000086,-4.59343840899993 L 39.406260613000086,-4.615166924999926 L 39.39616946700005,-4.629001559999949 L 39.36247806100005,-4.633965752999927 L 39.32439212300005,-4.624607028999947 L 39.30046634200005,-4.5949846329999104 L 39.29965254000007,-4.600762627999927 L 39.293711785000085,-4.615492445999905 L 39.264333530000044,-4.606622002999927 L 39.24268639400009,-4.6273739559999285 L 39.22437584700003,-4.655857028999947 L 39.20484459700003,-4.670098565999922 L 39.20069420700008,-4.671482028999947 L 39.19711347700007,-4.671807549999926 L 39.19385826900009,-4.673272393999923 L 39.19060306100005,-4.677504164999959 L 39.10575728400005,-4.616306253999909 L 39.020387817000085,-4.554914652999926 L 38.93501835100005,-4.4934196979999115 L 38.84964888500008,-4.4319247439999 L 38.764279419000104,-4.370533141999928 L 38.678806600000144,-4.309038187999917 L 38.5935404870001,-4.247543232999902 L 38.50827437300012,-4.18615163199992 L 38.4228015540001,-4.124760029999948 L 38.41617485900008,-4.119980776999924 L 38.337535441000114,-4.0632650759999365 L 38.252062622000096,-4.00187347399995 L 38.16679650900005,-3.940378519999854 L 38.08153039500007,-3.878986917999967 L 37.996057577000045,-3.817491962999952 L 37.910791463000066,-3.755997008999941 L 37.82542199700009,-3.694502054999944 L 37.77095503800007,-3.6554346719999273 L 37.75720910600006,-3.637451273999943 L 37.747183878000044,-3.616987405999879 L 37.72982059800012,-3.555389098999939 L 37.722275839000076,-3.5399895219999564 L 37.70832320200009,-3.52717376699988 L 37.689409627000146,-3.518078714999902 L 37.66832564300012,-3.5124976599999798 L 37.64693160000007,-3.510637308999975 L 37.5990792230001,-3.5134278359999342 L 37.596185343000116,-3.4996819049999033 L 37.60414351400004,-3.4801482129999073 L 37.60817427600006,-3.4636117559999064 L 37.603109986000106,-3.455756936999876 L 37.586676880000084,-3.4536898799999136 L 37.57944217900007,-3.4463518269999156 L 37.577891887000135,-3.4358098349999437 L 37.58047570800005,-3.4241309609999746 L 37.58522994000003,-3.412968851999949 L 37.5902942300001,-3.404080504999925 L 37.60486698400007,-3.3879574579999456 L 37.62719120300011,-3.370284117999944 L 37.6509623610001,-3.357571715999896 L 37.66987593600004,-3.356124775999902 L 37.668428996000046,-3.3382447309999463 L 37.67194299300007,-3.3242920939999436 L 37.681864868000105,-3.31571380599992 L 37.70005497200009,-3.3143702189999544 L 37.67999554300013,-3.192147645999924 L 37.67783410700008,-3.1789779669998808 L 37.66016076700009,-3.0705608119999113 L 37.64486454200005,-3.045962828999933 L 37.56228560400007,-2.9998674519999042 L 37.42421187500008,-2.9227535729998806 L 37.34762170400006,-2.879978128999923 L 37.13285445200012,-2.760088805999956 L 36.918190552000056,-2.640302835999904 L 36.70352665200005,-2.520413512999937 L 36.488862753000035,-2.400627542999885 L 36.2740955000001,-2.2808415729999325 L 36.05953495300008,-2.160952249999866 L 35.84487105300008,-2.041062926999899 L 35.63020715400012,-1.921173603999918 L 35.41564660700004,-1.801284280999937 L 35.24636655100005,-1.7068232389999878 L 35.200982707000094,-1.681498310999899 L 34.986215454000046,-1.561608987999918 L 34.77155155400004,-1.44182301799988 L 34.71889334500014,-1.4124135229999553 L 34.55688765400009,-1.321933694999899 L 34.342120402000035,-1.2021477249999464 L 34.12745650200014,-1.0822584029998836 L 34.05252567500008,-1.040400491999904 L 34.01542199700009,-1.0375066119999161 L 34.00198612400004,-1.0287216179999348 L 34.0000224210001,-1.0025733439999271 L 33.98451949100007,-1.002056578999884 L 33.98038537600007,-1.0025733439999271 L 33.90421431500005,-1.0025733439999271 L 33.898529907000125,-0.7990715539999371 L 33.894809204000126,-0.6627491249998911 L 33.91134566200009,-0.5192953489999184 L 33.935116821000065,-0.31310638399989443 L 33.95351363100008,-0.15435638399995355 L 33.952480102000095,-0.11570241299995132 L 33.92157759600008,-0.01296966499994312 L 33.890468384000144,0.09007314000005806 L 33.89356896900006,0.10981353800011107 L 33.95175663300006,0.18732818600007306 L 33.96026592400011,0.19867720600011296 L 34.04064009600012,0.30587392100008515 L 34.076606893000076,0.3337791960000658 L 34.08518518000005,0.3470083620000679 L 34.0879757080001,0.36736887600009993 L 34.07671024600012,0.40385243800010073 L 34.075676717000135,0.42224924700011 L 34.080120890000046,0.4313443000000774 L 34.09738081800015,0.4518081660001343 L 34.10440881300008,0.4622468060000813 L 34.10750940000008,0.4707217410000766 L 34.13158774800007,0.5694329830000555 L 34.13241743900005,0.5728343710000274 L 34.149574016000145,0.6036335240000881 L 34.17913293400005,0.6238906860000952 L 34.21975061100011,0.6385667930000807 L 34.252100057000064,0.6549998980001419 L 34.276181275000056,0.6808381140000677 L 34.29230432100013,0.7237295530000267 L 34.29625187600004,0.7467458070000532 L 34.298402140000064,0.7592829380000836 L 34.30667037000012,0.768067932000065 L 34.37085249800015,0.8002106730000094 L 34.38800907400014,0.8158169550000451 L 34.40237512200014,0.8560728960000858 L 34.431210571000065,0.8935383100000678 L 34.45715214100011,0.9576170860000701 L 34.46304325400013,0.9780809530001306 L 34.46366337100005,1.0229360960001088 L 34.4688310140001,1.044226787000099 L 34.47720259600004,1.064587301000131 L 34.48702111800009,1.0824673470000903 L 34.507484985000076,1.1025178020001363 L 34.524021444000084,1.0986420690000926 L 34.54035119700012,1.0893919880000738 L 34.5600649320001,1.0931493100001006 L 34.561228475000064,1.0933710740000606 L 34.56688291800015,1.1030216860000763 L 34.57197717300011,1.1117162070001285 L 34.57363081800014,1.1342471310000661 L 34.58045210800009,1.15254058900004 L 34.62892460100005,1.1635993450001365 L 34.66303104600013,1.1963622030001346 L 34.683804973000065,1.2090746060000868 L 34.76607385300014,1.2174978640000802 L 34.797906535000095,1.231915588000092 L 34.81051558500013,1.272533264000046 L 34.80007694500006,1.3123241170000455 L 34.78271366400014,1.352993469000097 L 34.78074667700014,1.3717891220000524 L 34.77899296100014,1.3885468550000581 L 34.83842085800012,1.4371743780000656 L 34.859504842000035,1.5179188030000148 L 34.88255253000011,1.5522319540001206 L 34.89257775900012,1.5572704060001001 L 34.913558390000105,1.5615595500000694 L 34.92348026500008,1.566107076000094 L 34.93371219900007,1.575693054000098 L 34.94094689900004,1.587036031000082 L 34.97267622900006,1.6542412310000572 L 34.97867069500012,1.675945333000044 L 34.9797042240001,1.8703003950000578 L 34.984045044000084,1.8824701940000637 L 35.002751912000065,1.9061380010000875 L 35.006472615000064,1.916860860000014 L 35.00140832500006,1.9279971320001295 L 34.977947225000094,1.9499079390000844 L 34.96916223100004,1.9602949020000153 L 34.96203088300007,1.977813212000072 L 34.95789676900006,1.9978378300001083 L 34.956656535000036,2.018508403000027 L 34.95820682800013,2.037964580000107 L 34.96761193800012,2.0825613400000265 L 34.967508586000065,2.1019141640000782 L 34.92234338300011,2.2107188930001342 L 34.904284074000145,2.2542553160000836 L 34.86560266100008,2.347506409000104 L 34.85909143100008,2.386780497000089 L 34.86787642400009,2.411481832000092 L 34.885963175000086,2.4254344690000806 L 34.90611698400011,2.4369066370001065 L 34.92089644300012,2.4546316530001207 L 34.923583619000055,2.4773176070000886 L 34.91438521300006,2.494370829000019 L 34.88710005700011,2.522379456000124 L 34.88131229600015,2.5414480590001034 L 34.8756278890001,2.5912124640001224 L 34.86560266100008,2.6048550420000396 L 34.85650760900012,2.603459778000058 L 34.849893025000085,2.5951398720000896 L 34.84183150300004,2.5877501420000897 L 34.82808557100009,2.5887836710000727 L 34.81868046100004,2.597982076000065 L 34.77651249200005,2.6856253060000768 L 34.76131962100004,2.772493388000086 L 34.740959106000105,2.8355386350001055 L 34.73692834500014,2.8443753050001135 L 34.730107056000065,2.852850240000109 L 34.72483606000014,2.854142151000076 L 34.69651737400005,2.867733053000066 L 34.69465702300005,2.8704202270000962 L 34.692693319000114,2.872228903000078 L 34.691039673000034,2.8756912230000324 L 34.68886926300007,2.879153545000065 L 34.685045207000144,2.8809622200000575 L 34.68256473800005,2.8793602500000333 L 34.67812056500014,2.8715571090000935 L 34.67564009600005,2.8698001100001136 L 34.67150598100005,2.8677847290000784 L 34.66034387200011,2.858638001000088 L 34.654142700000136,2.8565192670001096 L 34.640500122000105,2.8601366170000944 L 34.63140507000014,2.8695417280000584 L 34.6164189050001,2.893416239000132 L 34.58468957500014,2.9287112430000377 L 34.57466434700012,2.946126200000066 L 34.54562219200005,3.0973831180000673 L 34.5455563430001,3.0975009530000364 L 34.53383996600013,3.118467102000082 L 34.51285933400004,3.1323680630000723 L 34.46573042800014,3.14585561100003 L 34.44485315000014,3.159136455000038 L 34.43400109900011,3.182029114000059 L 34.424079223000035,3.3048123170001134 L 34.411160116000076,3.344706523000056 L 34.40382206200013,3.355403544000069 L 34.39441695200014,3.3656613160000575 L 34.386562134000144,3.376384176000073 L 34.383978312000124,3.3883472700000254 L 34.386975546000144,3.3996644090000956 L 34.39700077300006,3.4241590370000523 L 34.398551066000095,3.433641662000113 L 34.39441695200014,3.4446229040000986 L 34.38211796000013,3.466042786000031 L 34.38129113800011,3.4768689980000715 L 34.38687219200011,3.48562815300005 L 34.395967244000076,3.489607239000037 L 34.406199178000065,3.4922944140000567 L 34.41550093600006,3.49702280700005 L 34.43451786300005,3.526219991000076 L 34.44392297400009,3.5662950650000624 L 34.446403443000065,3.6467035930000264 L 34.439685506000046,3.6677359010001283 L 34.42500939900009,3.6771926880000905 L 34.40630253100011,3.6829287720000536 L 34.387492310000084,3.692747294000114 L 34.35503951000004,3.7273705040001204 L 34.337056112000084,3.7345793660000908 L 34.309874309000065,3.7266987100000506 L 34.29943566900005,3.716931864000088 L 34.295094848000076,3.707345886000084 L 34.29044396900008,3.703160095000058 L 34.27886844900007,3.709723002000132 L 34.26377893000006,3.750056457000099 L 34.24155806500005,3.778736878000089 L 34.24093794700008,3.783620300000024 L 34.23039595600011,3.7827418010000713 L 34.21055220500011,3.7771349080000505 L 34.19091516100008,3.7758429970000122 L 34.17365523300009,3.7713988240000873 L 34.16518029800005,3.7708303830001313 L 34.152467895000086,3.775636292000044 L 34.15908247900012,3.7833619190000434 L 34.179029582000055,3.7961001590001047 L 34.16652388500006,3.8113188680000434 L 34.15081425000005,3.8172099810000475 L 34.14895389800006,3.822687683000126 L 34.19670292200004,3.847389018000044 L 34.20755497300007,3.860876567000105 L 34.20497115100011,3.8745449830001206 L 34.18285363700005,3.886094666000062 L 34.1634232990001,3.8861980190000907 L 34.12373579900009,3.872038676000045 L 34.10802616400014,3.8689380910000892 L 34.08477176900004,3.87733551000008 L 34.086218709000036,3.8946729530000823 L 34.09893111200006,3.9177206420000488 L 34.10957645600007,3.943352152000017 L 34.10709598800008,3.959501037000095 L 34.09552046700014,3.9709990440000382 L 34.08084436100006,3.980791728000085 L 34.06895878100005,3.991876323000099 L 34.06110396300011,4.007766825000118 L 34.06151737500011,4.017921245000082 L 34.06585819500009,4.0274297080000565 L 34.06978560300007,4.041356506000042 L 34.07267948400005,4.064662577000078 L 34.07236942600014,4.076418966000077 L 34.06926883900013,4.088020325000031 L 34.060897257000136,4.099259949000071 L 34.04973514800008,4.109466044000058 L 34.04095015500013,4.12042144800003 L 34.03970992100005,4.13403818700003 L 34.04105350800006,4.164811503000081 L 34.02854781100007,4.188014221000088 L 34.006016887000044,4.205713399000103 L 33.97707808500007,4.219691875000095 L 34.07815718600011,4.319840800000108 L 34.17913293400005,4.419912212000099 L 34.280108683000094,4.520061137000113 L 34.381187785000066,4.620158386000099 L 34.45967393766716,4.660608951185623 L 34.52915601831711,4.696418955078556 L 34.59815902670721,4.730920459273577 L 34.66627738114357,4.764979636491859 L 34.76358931605273,4.800365794640612 L 34.844751195724314,4.830894575067546 L 34.92082934837316,4.859511127898742 L 35.00272001408649,4.890314038855152 L 35.09429820157402,4.924760880020145 L 35.17618886728741,4.955563790976555 L 35.24572572082997,4.981719855153159 L 35.26341879990434,4.94854533188861 L 35.33356251052038,4.987281410885544 L 35.41159833715233,5.030375822607695 L 35.43371468599531,5.00383620399613 L 35.396116892962254,4.926428983045639 L 35.495640462755716,4.926428983045639 L 35.57083604882183,4.904312634202668 L 35.52218008136725,4.780461080681945 L 35.56260657344876,4.707137060193645 L 35.61020111305869,4.620811910080414 L 35.61064126820912,4.620013573553891 L 35.612139970604176,4.619497383178029 L 35.700364878660764,4.589110530793306 L 35.705811861646545,4.619260306395809 L 35.70584560472605,4.619447080539359 L 35.705938713505645,4.6199624483150075 z" /></g></g></svg>